<?xml version="1.0" encoding="utf-8"?>
<!-- Generator: Adobe Illustrator 27.5.0, SVG Export Plug-In . SVG Version: 6.00 Build 0)  -->
<svg version="1.1" id="Layer_1" xmlns="http://www.w3.org/2000/svg" xmlns:xlink="http://www.w3.org/1999/xlink" x="0px" y="0px"
	 viewBox="0 0 373.4 443.8" style="enable-background:new 0 0 373.4 443.8;" xml:space="preserve">
<style type="text/css">
	.st0{fill:#6C6D61;}
	.st1{fill:#EFD06F;}
	.st2{fill:#CDCEDB;}
	.st3{fill:#E2BA6D;}
	.st4{fill:#C8AD9A;}
	.st5{fill:#E0A492;}
	.st6{fill:#625221;}
	.st7{fill:#907D62;}
	.st8{fill:#E2BA6E;}
	.st9{fill:#595940;}
	.st10{fill:#DFA492;}
	.st11{fill:#D2934B;}
	.st12{fill:#F1EDE9;}
	.st13{fill:#645322;}
	.st14{fill:#E2B96D;}
	.st15{fill:#F6F4F2;}
	.st16{fill:#D89F7A;}
	.st17{fill:#91B3DC;}
	.st18{fill:#908D9C;}
	.st19{fill:#E21D4F;}
	.st20{fill:#F8F8FB;}
	.st21{fill:#851819;}
	.st22{fill:#BD8B6D;}
	.st23{fill:#CDCDCC;}
	.st24{fill:#94613A;}
	.st25{fill:#474644;}
	.st26{fill:#D89F79;}
	.st27{fill:#473C32;}
	.st28{fill:#734C3B;}
	.st29{fill:#BE8B6D;}
	.st30{fill:#D8A07A;}
	.st31{fill:#94623A;}
	.st32{fill:#DC415D;}
	.st33{fill:#D9A07A;}
	.st34{fill:#D8EEF5;}
	.st35{fill:#274A64;}
	.st36{fill:#A84B80;}
	.st37{fill:#152019;}
	.st38{fill:#AC7D5B;}
	.st39{fill:#EEE7E9;}
	.st40{fill:#BC8A6C;}
	.st41{fill:#E65D67;}
	.st42{fill:#FFFFFF;}
	.st43{fill:#F7F2EE;}
	.st44{fill:#EEE0D5;}
	.st45{fill:#5D4534;}
	.st46{fill:#958376;}
	.st47{fill:#2B2F3D;}
	.st48{fill:#B8B2A8;}
	.st49{fill:#B9B3A9;}
	.st50{fill:#463223;}
	.st51{fill:#DCAC86;}
	.st52{fill:#DCAD87;}
	.st53{fill:#251A1B;}
	.st54{fill:#B5AE9C;}
	.st55{fill:#2D313E;}
	.st56{fill:#EEECEC;}
	.st57{fill:#2C3551;}
	.st58{fill:#24293B;}
	.st59{fill:#342621;}
	.st60{fill:#E1EAF2;}
	.st61{fill:#A1642C;}
</style>
<g id="XMLID_1631_">
	<path id="XMLID_1253_" class="st0" d="M130.3,257.3c-1.4-0.5-2.9-0.4-4.4-0.8c-0.5-0.1-1-0.2-1.5-0.2c-1.4-0.1-2.2-0.7-2.5-2.2
		c-0.5-2.5-0.8-5.1-0.6-7.6c0-0.4,0-0.8-0.1-1.2c-0.3-2.2,0.6-4.1,1.9-5.8c0.4-0.5,0.7-1,0.6-1.7c0.1-0.2,0.1-0.3,0.1-0.5
		c0-0.9,0-0.9,0.9-0.6c0.8,0.3,1.5,0.2,2.3,0.1c2.1-0.1,4.1-0.6,6.1-1c1-0.2,1.2-0.6,1-1.6c-1.2-5.3-1-10.7-1.7-16
		c-0.4-3.2-0.2-6.4-0.5-9.5c0-0.2,0-0.5,0.1-0.7c0.2-0.3,0.4-0.5,0.8-0.6c0.4,0,0.6,0.2,0.6,0.6c-0.1,2.7,1,4.9,2.9,6.7
		c1.6,1.5,3.5,2.2,5.6,2.4c0.5,0,0.8,0.1,0.4,0.6c-0.6,1.8-0.2,3.6,0.2,5.4c0.7,2.9,1.6,5.8,2.1,8.7c0.6,3.4,0.7,6.7-1.5,9.6
		c-1.1,1.5-2.7,2.5-4.6,2.8c-0.3,0-0.6,0.1-0.9,0.3c1.9,2.5,2.6,7.1,0.4,10.4c-0.3,0.4-0.6,0.6-1.1,0.8c-1.8,0.5-3.5,1.1-5.3,1.6
		C131.2,257.3,130.7,257.3,130.3,257.3z"/>
	<path id="XMLID_1252_" class="st1" d="M102.3,51.8c-7,4.3-14.3,8-21.2,12.4c-1.2,0.8-2.6,1.4-3.5,2.7c-0.1,0.2-0.4,0.4-0.6,0.4
		c-3.6,0.6-6.8,2.4-10,4c-5.8,2.8-11.5,5.8-17.4,8.2c-1.1,0.5-2.2,1.1-3.1,1.9c-0.6,0.5-0.8,0.3-1-0.3c-0.4-1.3-0.8-2.6-1.1-3.9
		c0-0.1,0-0.4-0.1-0.4c-1.8-0.3-0.7-1.7-0.6-2.3c0.4-3.6,1.5-7,2.8-10.4c1.6-4.6,3.4-9.1,5.5-13.5c0.4-0.9,0.8-1.9,1.1-2.9
		c1.1-3.5,3.8-5.8,6.2-8.3c2.4-2.5,5.6-3.6,8.3-5.6c2.1-1.5,4.1-3,6-4.7c0.3-0.3,0.5-0.5,0.7-0.9c0.5-1.2,1.5-1.7,2.5-2.2
		c4.3-1.9,8.5-4.1,12.4-6.7c2-1.3,3.9-2.5,5.8-3.9c1.5-1.2,3.5-1.5,5.2-2.2c4.1-1.6,8.1-3.5,12.3-5c3.3-1.2,6.7-2.5,10.3-2.8
		C127,5,131.3,5,135.5,5.3c7.7,0.6,15.3,1.7,22.4,5c0.3,0.2,0.8,0.2,0.8,0.6c0,0.5-0.2,1-0.9,0.7c-0.8-0.3-1.4-0.1-1.6,0.9
		c-0.4,1.7-1.2,3.2-1.9,4.8c0.6,0.1,1,0.2,1.5,0.3c0.4,0.1,0.6,0.4,0.2,0.6c-0.4,0.3-0.9,0.9-1.5,0.8c-2-0.4-3.5,0.6-5,1.8
		c-1.6,1.3-3.2,2.6-4.8,4c-0.5,0-0.8-0.4-1-0.7c-1.2-1.8-2.8-3.2-4.1-4.9c-0.5-0.6-1-0.7-1.8-0.4c-3.7,1.5-7.3,3.1-11,4.7
		c-0.3,0.1-0.6,0.2-0.6,0.6c0,0.8-0.5,1.1-1.2,1.3c-1.2,0.4-2.4,0.8-3.6,1.1c-0.8,0.2-1.2,0.7-1.2,1.6c-0.2,1.7-0.3,3.4-0.5,5.2
		c-0.2,1.5,0,3,0.4,4.4c0.2,0.9,0.4,1.8,0.7,2.7c0.2,0.6,0.2,1.2,0.1,1.8c-0.1,0.3-0.3,0.4-0.6,0.6c-2.8,1.5-5.6,3-8.5,4.3
		c-1.8,0.8-3.5,1.9-5.3,2.7c-1,0.5-2,0.9-3,1.3c-0.6,0-0.7-0.5-0.9-0.9c-1.6-3-3.2-6-5.1-8.8c-0.3-0.4-0.5-1.2-1-0.9
		c-0.6,0.4,0,1,0.3,1.4c1.6,2.7,3.2,5.5,4.8,8.2C102.1,50.7,102.6,51.2,102.3,51.8z"/>
	<path id="XMLID_1251_" class="st2" d="M132.3,208c-0.2,0.9,0,1.8,0,2.8c0,1.5,0.1,3,0.1,4.5c0,2.8,0.5,5.5,0.8,8.3
		c0.1,1.3,0.2,2.6,0.2,3.9c0.1,2.3,0.5,4.4,0.9,6.6c0.3,1.5,0.3,1.7-1.2,2c-2.7,0.6-5.3,1.2-8.1,1c-0.4,0-0.9,0-0.9-0.6
		c-0.5,0.4-0.1,0.9-0.5,1.2c0-0.4-0.1-0.7-0.6-0.6c-0.6,0-0.8-0.5-0.8-1c-0.2-3.5-1.4-6.8-2.1-10.2c-0.7-3.2-2.2-6.1-3.7-9
		c-1.4-2.8-1.9-5.7-2.6-8.7c-1.1-4.5-2-9-2.7-13.6c-0.9-5.9-2.7-11.5-4.3-17.2c-1-3.6-1.6-7.4-2.3-11.1c-0.3-1.9-0.7-3.8-1-5.8
		c0.2-0.6,0.5-0.2,0.8-0.1c1.9,0.5,3.7,1.2,5.6,1.7c0.8,0.2,1.2,0,1.5-0.8c0.5-1.7,0.8-3.5,0.9-5.3c0.2-2.8,0.7-5.5,1-8.3
		c0-0.5,0.1-1,0.1-1.5c0.1-0.7,0-1.4,0.6-2c1-0.2,1.9,0.3,2.9,0.4c1.8,0.2,3.6,0,5.4,0.3c1.9,0.3,3.6,0.9,4.5,2.7
		c0.3,0.6,1,0.8,1.7,0.7c0.5-0.1,1.1-0.3,1.6-0.4c1.7-0.5,3.3-0.8,5.1-0.4c1.2,0.3,2.2,0,3.2-0.7c1.4-1,2.7-2.2,4-3.3
		c0.8-0.7,1.6-1.5,2.7-1.7c0.6,0.1,0.9,0.7,1.2,1.2c1.3,1.8,2.4,3.9,3.4,5.9c0.9,1.8,1.8,3.6,3.3,4.9c0.2,0.2,0.4,0.5,0.2,0.8
		c0,2.5-0.5,4.9-0.2,7.4c0.4,3.7,0.3,7.4,0.8,11.1c0.1,1,0.1,2,0,2.9c-0.1,1.3,0.4,2.1,1.3,3c1.3,1.3,1.3,1.5,0.2,2.8
		c-0.8,1-1.2,1.9-0.7,3.2c0.4,0.9,0,1.9-0.7,2.6c-1.2,1.2-1.6,2.8-1.9,4.4c-0.2,1.5-0.6,3-1.4,4.3c-0.8,1.2-0.9,2.7-1.2,4.1
		c-0.4,2.3-1.1,4.6-2,6.8c-1.1,2.6-2.1,5.2-2.3,8c0,0.4-0.2,0.8-0.4,1.3c-0.5,1.4-0.5,1.4-1.8,1.1c-0.1,0-0.3,0-0.4,0
		c0-0.2,0.3-0.5-0.2-0.5c-1.2,0.2-2.4-0.1-3.4-0.6c-1.5-0.7-2.8-1.7-3.9-3c-1.1-1.5-1.5-3.2-2-4.9c-0.1-0.3,0-0.6,0.3-0.8
		c0.3-0.3-0.1-0.3-0.3-0.4c-0.5-0.4-0.4-0.9-0.3-1.4c0.3-2.8,0.8-5.6,0.7-8.4c0-1.2-0.1-2.4-0.3-3.6c-0.4-2.1-0.4-4.2,0.1-6.2
		c0.3-1.2,0.5-2.5,0.4-3.7c0-1.1,0-2.2,0.1-3.4c0.2-1.2-0.2-2.3-1-3.2c-1.3-1.3-1.9-2.8-1.8-4.7c0.1-1.3,0-2.6-0.4-3.9
		c-0.1-0.3-0.2-0.5-0.1-0.8c0.1-2.1-0.6-4.1-1.5-6c-1.1-2.3-1.5-4.7-2-7.2c0.1,3.4-0.5,6.8,0.9,10.1c0.7,1.6,0.6,3.4,0.4,5.1
		c-0.2,1.5,0,3,0.7,4.3c1.2,2.3,1.8,4.7,1.6,7.3c0,0.4-0.1,0.9-0.2,1.3c-0.7,2.6-0.8,5.2,0.6,7.7c0.7,1.4,0.4,2.8,0.2,4.2
		c-0.4,2.6,0,5.1,0.4,7.7c0.2,1.3,0.5,2.7,0.9,4C132.3,207.1,132.5,207.5,132.3,208z"/>
	<path id="XMLID_1250_" class="st3" d="M114.2,144.4c-0.6,1.3-0.4,2.8-0.6,4.2c-0.3,1.9-0.6,3.9-0.7,5.8c-0.2,1.9-0.3,3.8-0.7,5.7
		c-0.6,2.8-1,3-3.6,2.1c-1.2-0.4-2.5-0.9-3.8-1.1c-0.4-0.1-0.7-0.7-1.2-0.4c-3.1-0.7-6.2-1.5-8.2-4.4c-0.2-0.3-0.4-0.6-0.4-1
		c0.1-2.8-0.4-5.6-0.4-8.4c0-2.2-0.6-4.3-0.6-6.5c0-2.5,0.1-5,0-7.5s-0.3-4.9-0.7-7.3c-0.2-1.3-0.3-2.7,0-4.1c0.3-1.5,0-3-0.1-4.4
		c-0.1-1.2-0.1-2.5-0.3-3.7c-0.1-0.9-0.4-1.5-1.1-2.2c-2-1.8-4.2-3.5-6.3-5.1c-1.2-0.9-1.9-2.2-1.7-3.7c0.3-2.4,0.5-4.8,1-7.2
		c0.4-2.1,1-4.2,1.9-6.2c1.2-2.6,1.7-5.4,2.4-8.1c0.9-3.3,2.4-6.3,4.1-9.2c1.6-2.8,3-5.8,5-8.5c1.4-1.9,3.2-3.5,4.9-5.2
		c0.6-0.6,1.3-0.8,2.1-1c0.5,0,0.5,0.4,0.7,0.6c3,4.8,5.7,9.8,8.6,14.7c2.2,3.9,4.5,7.8,6.8,11.6c0.1,0.1,0.2,0.3,0.2,0.5
		c0,0.7,0.2,1.3,0.5,1.8c0.4,0.5,0.7,1.1,0.9,1.7c0.1,0.3,0.4,0.7,0,1c-0.7-0.1-1.4,0.1-2.1,0.3c-0.9,0.4-2,0.6-3,0.8
		c-0.7,0.1-1.2,0.4-1.4,1.2c-0.9,3.1-1.3,6.1-0.1,9.2c0.3,0.7,0.6,1,1.3,0.7s1.4-0.4,2.1-0.5c0.4-0.1,0.8-0.2,1.1,0.2
		c-0.6,1.9-0.5,4.1-1.8,5.8c-0.3,0.4-0.3,0.9-0.4,1.4c-0.5,5-0.8,10-1.6,14.9c-0.6,3.6-1.5,7.2-1.9,10.8c-0.4,3.1-0.7,6.1-1,9.2
		c0,0.3-0.1,0.5,0.1,0.8C114.4,143.8,114.3,144.1,114.2,144.4z"/>
	<path id="XMLID_1249_" class="st3" d="M141.9,46.8c1.2,1.2,2.7,2,4.1,3c4,2.7,7,6.2,9.1,10.6c3.4,6.9,5.6,14.1,7.6,21.4
		c1.4,5.1,2.6,10.3,4.3,15.4c1.9,5.4,4,10.7,6.3,16c1.2,2.7,1.6,5.6,2.1,8.5c1.1,7.6,2.4,15.2,5.5,22.4c0.2,0.4,0.3,0.7-0.3,1
		c-3,1.1-6,2.2-9.1,3.1c-0.7,0.2-1.4,0.2-2.1,0c-1.1-0.4-2.2-1.1-3.4-1.3c-0.5-0.1-0.7-0.6-0.9-1.1c-0.8-1.9-1.4-4-2.4-5.8
		c-0.4-0.8-0.9-1.4-1.7-1.8c-0.2-0.2-0.2-0.4-0.2-0.6c0.1-3-0.9-5.9-0.7-8.9c0.1-1.1-0.4-2.2-1.3-2.8c-2.4-1.9-2.8-4.6-3-7.4
		c0-0.5-0.1-1-0.3-1.5c-0.6-1.3-1-2.6-1.7-3.8c-1.4-2.5-3.5-4.2-6.3-4.9c-1.8-0.5-3.5-1.1-4.7-2.6c-0.2-0.2-0.3-0.4-0.5-0.7
		c-0.4-1.5-0.1-3.1-0.4-4.7c-0.1-0.9-0.1-1.8-0.2-2.6c-0.4-2.8-0.1-5.5,0.1-8.3c0.2-2-0.2-3.9-0.3-5.9c-0.1-3.5-0.7-7-0.8-10.5
		c-0.1-2.7,0-5.5,0.1-8.2c0-1,0-2-0.3-2.9c-0.7-2.4-0.9-5-1.9-7.4c-0.2-0.4-0.2-0.9-0.3-1.3c0-1.4,0.7-2.5,1.4-3.6
		c0.6-0.9,1.3-1.6,1.7-2.6C141.6,46.8,141.7,46.8,141.9,46.8z"/>
	<path id="XMLID_1248_" class="st4" d="M142.6,105c1.2,1.5,2.6,2.7,4.6,2.9c1.9,0.2,3.3,1.5,4.7,2.6c1.5,1.1,2.2,2.5,2.8,4.1
		c0.1,0.3,0.3,0.7,0.5,1c0.9,1.4,1,3,1.1,4.6c0.2,1.8,0.5,3.5,2,4.8c1.5,1.2,2.1,2.8,2.1,4.8c-0.1,1.8,0,3.6,0.6,5.3c0.3,1,0,2,0,3
		c-0.8,1.9-2.1,3.1-4.2,3.6c-0.8,0.2-1.6,0.4-2.3,0.6c-0.9,0.5-1.7,1-2.9,0.9c-0.8-0.1-1.5-0.3-2.1-0.9c-1.3-1.4-2.8-2.5-4.2-3.8
		c-0.7-0.7-1.7-1-2.6-1.4c-1.5-1.5-3.5-2.3-5.2-3.6c-1.9-1.4-3.7-2.8-5.6-4.2c-0.5-0.4-0.7-0.8-0.7-1.4c0-0.9,0.2-1.8,0.2-2.6
		c-0.1-4.7-0.2-9.5-0.6-14.2c-0.2-2.3-0.3-2.3,1.9-3.2c1.7-0.7,1.7-0.7,1.4-2.6c-0.1-0.6-0.1-1.2-0.1-1.8c0.1-1.1,0.5-1.4,1.4-0.9
		c1.2,0.6,2.5,1.1,3.7,1.7C140.3,104.8,141.4,105.1,142.6,105z"/>
	<path id="XMLID_1247_" class="st5" d="M141.9,46.8c-0.3,0.8-0.8,1.5-1.3,2.2c-1,1.2-1.5,2.5-1.9,3.9c0,0.7-0.2,1.2-0.6,1.8
		c-1,1.4-1.6,3-1.2,4.8c0.5,2.7-0.3,5.3-1.7,7.7c-0.8,1.3-1.6,2.7-2.1,4.2c-0.1,0.4-0.3,0.7-0.7,0.8c-0.5,0-0.7-0.3-0.9-0.7
		c-0.2-0.4-0.4-0.7-0.5-1.1c-1.3-4.5-4-8.5-5.4-13c-0.3-1-0.8-2-1-3.1c-0.3-1.6-1-3.1-1.8-4.5c-0.1-0.3,0-0.6,0-0.9
		c0.1-0.3-0.1-0.5-0.3-0.6c-0.2-0.3-0.3-0.6-0.3-0.9c0.1-2.2-0.2-4.4-0.2-6.6c0-1.5,0.2-3,0.9-4.3c0.7-1.5,1.2-3.1,1.8-4.6
		c1.4-3.5,3.7-4.4,7.2-4c1.5,0.2,3.1,0.4,4.6,0.8c2.1,0.6,3.8,1.8,5.4,3.4c0.5,0.5,0.7,1.2,0.8,1.8c0.8,3.4,0.6,6.9,0.4,10.4
		c0,0.2-0.1,0.3-0.2,0.5C142.3,45.4,142.4,46.2,141.9,46.8z"/>
	<path id="XMLID_1246_" class="st6" d="M142.7,44.8c-0.4-0.5,0-1,0-1.4c-0.1-2.9,0.1-5.9-0.4-8.8c-0.3-1.4-0.7-2.6-2-3.3
		c-0.8-0.5-1.6-1.1-2.5-1.6c-0.7-0.5-1.5-0.8-2.4-0.8c-1.5-0.1-2.9-0.7-4.5-0.7c-3.9-0.1-5.2,1.3-6.3,4.3c-0.5,1.4-1,2.9-1.6,4.2
		c-1,2.1-1,4.3-0.8,6.5c0.1,1.5,0,3,0.1,4.6c-0.3,0.4,0.1,0.8,0,1.2c-0.2,0.3-0.1,0.9-0.7,0.5c-0.4-1.6-0.7-3.1-0.6-4.7
		c0.1-0.7-0.3-1.5,0-2.3c0.3-1.4-0.4-2.6-0.7-3.9c-0.5-2.2-0.8-4.4-0.4-6.7c0.2-1.3,0.3-2.7,0.3-4c0-0.6,0.2-1,0.9-1.2
		c1.4-0.4,2.9-0.9,4.3-1.4c1-0.3,1.1-0.5,0.5-1.5c3.4-1.4,6.7-2.8,10.1-4.2c0.5-0.2,1-0.4,1.5-0.6c1.7-0.7,1.7-0.7,2.9,0.8
		c1.4,1.8,3,3.5,4.5,5.3c0.5,2,1,4,1.2,6c0.1,1.5,0.3,2.9,0.7,4.4c0.5,2.1,0.7,4.4-1,6.3c-0.8,0.8-1.3,1.8-1.7,2.9
		c-0.1,0.4-0.1,1.1-0.7,1.1C143,45.7,142.9,45.1,142.7,44.8z"/>
	<path id="XMLID_1245_" class="st7" d="M121.1,84.3c-2.2-3.4-4.2-6.9-6.2-10.4c-3-5.1-5.7-10.3-8.9-15.2c-0.4-0.6-0.7-1.2-1-1.7
		c-0.7-1.8-1.7-3.5-2.6-5.1c-1.2-2.5-2.7-4.8-4-7.1c-0.6-1.1-1.3-2.2-1.9-3.2c-0.2-0.4-0.5-0.8,0.1-1.1c0.5-0.4,0.8,0,1.1,0.4
		c1.3,2.4,3.2,4.5,4.3,7c0.5,1.2,1.1,2.3,1.9,3.3c0.4,0.1,0.5,0.4,0.7,0.7c0.9,1.4,1.7,2.8,2.5,4.3C111,63.7,115.2,71,120,78
		c0.3,0.4,0.6,0.9,0.8,1.4s0.4,1,0.9,1.3c0.6,1,1.1,2.1,1.3,3.2C122.4,84.3,121.8,84.5,121.1,84.3z"/>
	<path id="XMLID_1244_" class="st8" d="M142.9,137c1.7,0.3,2.8,1.6,4.1,2.6c1,0.8,2,1.7,2.9,2.7c0.9,0.9,3,0.9,4,0
		c0.2-0.2,0.4-0.6,0.6,0c-0.4,0.9-0.2,1.9-0.2,2.8c0.2,1.9,0,3.9,0,5.8c0,1.7,0.2,3.4,0.7,5.1c0,0.2,0.1,0.3-0.1,0.5
		c-0.9-0.3-1.1-1.3-1.8-1.8c0-0.2,0-0.4-0.2-0.5c-1.3-0.9-2-2.2-2.7-3.5c-1.6-2.9-3-6-5.1-8.6c-0.7-1.3-1.3-2.7-2-3.9
		C142.9,137.8,142.7,137.5,142.9,137z"/>
	<path id="XMLID_1186_" class="st9" d="M110.3,53.8c1.4-0.8,2.8-1.7,4.3-2.2c0.7,0,0.9,0.4,1.2,0.9c1.9,3,3.3,6.2,4.4,9.6
		c0,0.1,0.3,0,0.1,0c0,0-0.1,0-0.1-0.1c-0.1-1.1,0.2-2.2,0.3-3.3c0.4-2.7,0.8-5.3,0.7-8c0-0.4-0.1-0.9,0.4-1.2
		c0.1-0.3,0.2-0.6,0.3-0.8c0.1-0.1,0.2-0.3,0.4-0.2c0.2,0,0.4-0.2,0.5,0.1s-0.3,0.3-0.3,0.5c-0.1,0.2-0.3,0.4,0,0.6
		c1.2,1.6,1.5,3.5,2.2,5.4c1,3,2,5.9,3.5,8.7c1.1,1.9,1.8,4,2.5,6c0.2,0.6,0.5,1.2,0.7,1.8c0.1,0.2,0.2,0.5,0.6,0.5
		c0.3,0,0.5-0.3,0.5-0.6c0.3-1.5,1.1-2.7,1.9-3.9c1.7-2.8,2.5-5.7,1.9-9c-0.2-0.9,0-1.7,0.5-2.5c0.6-1,1.3-2,1.7-3.1
		c1.4,4.5,2.9,8.9,2.7,13.7c-0.1,2,0,4-0.1,6c-0.1,1.3,0.1,2.6,0.4,3.9c0.2,1.2,0.2,2.4,0.3,3.6c0.1,2.5,0.2,4.9,0.4,7.4
		c0.1,1.7-0.1,3.3-0.3,4.9c-0.2,1.9,0,3.7,0.2,5.6c0.2,2.1,0.4,4.1,0.4,6.2c0,0.3,0.1,0.5,0.1,0.8c-0.8,0.7-1.7,0.3-2.5,0
		c-1.6-0.6-3.1-1.2-4.6-2c-1.1-0.6-1.1-0.5-1.2,0.7c-0.1,1,0.2,2,0.2,3c0,0.6-0.1,0.9-0.8,1.1c-0.9,0.2-1.8,0.7-2.6,1
		c-0.4,0.1-0.6,0.3-0.4,0.8c0.5,1.7,0.5,3.5,0.6,5.2c0.1,3.4,0.3,6.8,0.4,10.1c0,1.1-0.3,2.2-0.2,3.3c0,0.2-0.1,0.5,0.2,0.7
		c2.7,1.8,5.1,4,7.9,5.7c1.2,0.7,2.4,1.4,3.3,2.5c0.3,1.2,1.2,2.2,1.7,3.4c0.2,0.5,0.6,1,0.5,1.7c-1.7,0.7-2.9,2.1-4.3,3.2
		c-0.9,0.8-1.9,1.5-2.9,2.2c-0.8,0.5-1.7,0.7-2.5,0.5c-1.9-0.5-3.7-0.2-5.5,0.4c-0.2,0.1-0.4,0.1-0.7,0.2c-1.7,0.5-2.1,0.4-3-1.2
		c-0.8-1.5-2.3-1.7-3.7-2c-1.8-0.4-3.7-0.2-5.6-0.4c-1-0.1-1.9-0.2-2.9-0.6c-0.2-0.3,0.3-1.4-0.8-0.5c0.6-2.6,0.6-5.2,1-7.7
		c0.5-3.6,1-7.1,1.7-10.7c0.6-3,1-6,1.3-9c0.3-3.1,0.5-6.2,0.8-9.3c0-0.4,0.1-0.9,0.4-1.1c0.9-0.8,1-1.9,1.2-2.9
		c0.1-1,0.4-1.8,0.9-2.7c0.7-1.3,2-1.4,3.2-1.5c1.8-0.1,3.6-0.4,5.4-0.2c0.8,0,1.1-0.2,1.3-1.1c0.3-1.3,0.4-2.6,0.5-3.9
		c0.2-1.4-0.2-2.9-1.1-4.1c-0.5-0.7-1.4-0.6-2.2-0.7c-0.6-0.1-1.2,0.1-1.8-0.3c-0.4-0.3-0.6-0.7-0.7-1.2c-0.2-1-0.8-1.9-1.2-2.8
		c-0.3-0.7-1.2-0.5-1.4-1.2c-0.6-1-0.7-2.2-1.4-3.1c-0.2-0.4-0.4-0.8-0.6-1.2c-0.6-1.2-1-2.5-1.3-3.8c-1-4.2-2.5-8.2-4.2-12.2
		c-1-2.3-2.6-4.1-4.1-6.1c-0.3-0.5-0.7-0.9-1-1.4C109.8,55.1,109.7,54.4,110.3,53.8z"/>
	<path id="XMLID_1185_" class="st10" d="M126,88.6c0.9,0.4,1.9,0.1,2.9,0.4c1.2,0.3,2.1,1.3,2.2,2.5c0,0.5,0,1,0.4,1.4
		c0.1,0.2,0.1,0.6,0,0.8c-0.6,1.2-0.1,2.6-0.6,3.8c-0.2,0.5,0.2,1.2-0.3,1.6c-0.6,0.4-1.3,0.2-2,0.2c-1.9,0-3.8,0.2-5.7,0.4
		c-0.9,0.1-1.4,0.6-2.1,1c-1.2,0.1-2.4,0.3-3.5,0.8c-0.6,0.2-0.8,0.2-1-0.4c-1.4-3.3-1.1-6.5-0.2-9.8c0.2-0.9,0.7-1.3,1.6-1.5
		c1.3-0.2,2.7-0.5,3.9-1.1c0.5-0.3,0.9,0,1.3,0.2C123.8,88.5,124.9,88.4,126,88.6z"/>
	<path id="XMLID_1184_" class="st11" d="M126,88.6c-1.1,0.2-2.1,0.4-3.2,0.2c-0.2-1.2-0.9-2.1-1.5-3.1c-0.2-0.4-0.3-0.8-0.1-1.3
		c0.5-0.2,1.2-0.2,1.6-0.6c2.1,0.4,2.2,2.3,2.8,3.8C125.7,87.9,125.8,88.2,126,88.6z"/>
	<path id="XMLID_1183_" class="st12" d="M122.5,48.4c-0.1,0.1-0.3,0.1-0.4,0.2c0.2-0.3-0.4-0.8,0.2-1
		C122.4,47.9,122.5,48.1,122.5,48.4z"/>
	<path id="XMLID_88_" class="st13" d="M122.7,49.6c-0.1,0-0.3,0.2-0.4-0.1c0-0.3,0.2-0.5,0.4-0.6C123,49.2,122.6,49.4,122.7,49.6z"
		/>
	<path id="XMLID_87_" class="st14" d="M121.8,49.4c0,0.7-0.1,1.4-0.1,2c0.1,2.4-0.4,4.7-0.7,7c-0.2,1.3-0.2,2.6-0.6,3.8
		c-0.8-0.9-1-1.9-1.4-2.9c-0.8-2.6-2.3-4.9-3.6-7.2c-0.2-0.3-0.5-0.4-0.8-0.6c1-0.6,1.4-1.6,1.8-2.6c0.9-2.2,2.4-3.9,4.8-4.5
		C121.2,46.2,121.6,47.8,121.8,49.4z"/>
	<path id="XMLID_86_" class="st14" d="M110.3,53.8c-0.5,1.1-0.1,2,0.7,2.9c4.9,5.5,6.8,12.3,8.7,19.1c0.3,1.2,0.8,2.4,1.2,3.6
		c-0.1,0.1-0.2,0.1-0.4,0c-4.7-7.2-9.4-14.4-13.2-22.2c-0.2-0.4-0.6-0.6-0.6-1.1C108.2,55.8,109.2,54.7,110.3,53.8z"/>
	<path id="XMLID_85_" class="st15" d="M120.5,79.4c0.1,0,0.2,0,0.4,0c0.2,0.4,0.5,0.7,0.4,1.2C120.9,80.3,120.7,79.9,120.5,79.4z"/>
</g>
<g id="XMLID_970_">
	<path id="XMLID_946_" class="st16" d="M368.7,116c-1.4,0.8-2.7,1.5-4.1,2.3c-1.3,0.7-2.1,1.9-2.8,3.1c-1,1.7-2.4,2.8-4.1,3.8
		c-3.9,2.2-8,3.7-12,5.5c-3.6,1.6-7,0.7-10.3-0.9c-3.5-1.6-7.1-2.9-10.7-4.4c-0.8-0.3-1.5-0.7-2.2-1.1c-0.9-0.5-1-1.2-0.6-2
		c0.9-2.2,1.9-4.4,2.5-6.7c0.1-0.5,0.4-0.8,0.9-1c2.4,1.9,5.4,2.6,8.1,3.8c2.4,1,4.7,2.6,7.3,3.2c0.8,0.2,1.4,0.1,2.2-0.3
		c3.2-1.9,6.6-3.6,10.4-4.2c1.2-0.2,2-0.8,2.4-1.9c0.8-2.2,1.8-4.3,3.4-6.1c1.3-1.5,2.3-1.7,4.1-0.7c0.9,0.5,1.9,0.8,2.9,1.3
		c1.5,0.8,2.3,1.9,2.8,3.3C368.7,113.9,368.7,114.9,368.7,116z"/>
	<path id="XMLID_945_" class="st17" d="M211.2,290.1c1.7,1,2.6,2.6,2.2,4.1c-0.3,1.3-2.5,2.9-4.3,3.1c-4.5,0.4-7.9-1.3-10.4-5
		c-0.8-1.1-1.6-2.2-2.8-3c-0.6-0.4-0.7-0.3-0.9,0.4c-0.5,1.4-0.5,2.9-0.7,4.3s-1,1.9-2.3,2.2c-2.1,0.4-4.2,0.4-6.2,1.1
		c-0.2,0.1-0.3,0.2-0.5,0.3c-0.6,0-1.3,0-1.9,0c-0.5-0.4-1.1-0.7-1.5-1.2c-0.4-0.4-0.6-1-0.1-1.6c0.8,0.1,1.5,0.3,2.3,0
		c2.2-0.7,4.4-0.9,6.7-0.7c1,0.1,2-0.3,2.2-1.3c0.6-3.1,1.1-6.3,1.4-9.5c0-0.2,0-0.4,0.1-0.6c1-0.3,1,0.5,1.4,1.1
		c-0.3,2.1,0.4,3.7,1.8,5.2c0.2,0.2,0.3,0.5,0.3,0.8c0,0.9,0.8,1.3,1.3,1.9c0.7,0.5,1.5,1,2.1,1.5c0.8,0.7,1.7,1,2.8,1
		c1.7-0.1,3.5,0.6,5.2,0c0.5-0.2,1-0.2,1.4-0.5c0.8-0.5,1.2-1,0.5-1.9C211.1,291.1,210.8,290.7,211.2,290.1z"/>
	<path id="XMLID_944_" class="st18" d="M325.2,114.6c-1.1,2.8-2.1,5.6-3.3,8.3c-0.4,0.8,0.9,0.7,0.5,1.4c-0.6,1.1-1.1,2.3-2.5,2.5
		c-0.8,0.1-0.7,1-0.8,1.4c-0.9,3.5-0.7,7-0.6,10.6c0.1,1.4,0.8,2.7,1,4.1c0.6,3.4,0.4,7,1.4,10.3c1.1,3.6,1.1,7.4,1.2,11.1
		c0.1,2-0.3,4.1-0.8,6.1c-0.4,1.9,0.1,3.6,0.3,5.4c0.3,2.4,0.4,2.4-1.9,2.2c-1.5-0.2-3-0.5-4.5-0.3c-4.1,0.5-8.3,0-12.2-1.3
		c-4.1-1.3-8.3-1.7-12.5-1.7c-3.6,0.1-6.9-0.9-10.3-1.7c-0.6-0.1-1.1-0.5-1.5-1c-1.1-1.1-1.1-1.9,0-3c0.9-0.5,1.4-1.1,0.5-2.2
		c-0.6-0.8-0.3-1.6,0.4-2.2c0.6-0.5,0.8-0.9,0.5-1.6c-0.3-0.8-0.2-1.4,0.8-1.7c0.2-0.1,0.5-0.3,0.5-0.4c0.2-2.4,2.6-3.8,3.1-6.2
		c0.4-1.9,0.4-2.1-1.4-2.6c-2.1-1.6-2.4-5.9-0.5-8.3c0.4-0.5,0.9-1.1,1.1-1.7c0.1-0.3,0.3-0.8-0.1-1c-0.3-0.2-0.6,0-0.9,0.2
		c-1.1,0.8-2.4,1.1-3.8,1.3c-1.6,0.2-2.6-0.6-3.3-2c0.2-4-0.8-7.9-0.6-11.9c0.1-1.6,0.2-3.3,0.6-4.9c0.6-2.1,2.1-3.6,3.9-4.8
		c0.3-0.2,0.8-0.3,1-0.6c0.7-0.3,0.8,0.3,1,0.6c1.1,1.3,1.7,1.4,3.2,0.6c0.2-0.1,0,0.1,0.1-0.1c2.2-2.2,5.1-2.8,7.8-4
		c2.4-1.1,4.7-2.6,6.9-4.1c0.7-0.5-0.5-1.2,0.4-1.3c2-1.6,4.1-3.1,6.9-3.2c0.8,0,1.7-0.3,2.4-0.9c1-0.9,2.1-0.5,3.2-0.2
		c1.8,0.6,3.5,1.4,5,2.6c2,1.6,4.6,1.8,6.6,3.3C325.9,112.9,326,112.8,325.2,114.6z"/>
	<path id="XMLID_943_" class="st19" d="M204,173.1c-0.4,0.3-0.7,0.5-0.6,1.1c0.1,1.1-0.3,2.2-0.2,3.3c0.2,3.2-0.6,6.1-1.5,9
		c-0.6,2.1-0.1,4,0.7,5.8c0.5,1.2,0.9,2.4,0.5,3.7c-0.2,0.8,0.2,1.5,0.7,2c2,2.2,2,5,2.2,7.7c0.2,3.1,0.7,6.2,1,9.3
		c0.1,0.9,0.6,2-0.4,2.8c-0.3,0-0.5-0.3-0.8-0.3c-0.1,0-0.2,0-0.3,0c0,0,0,0,0.1,0c0.2,0,0.4,0.1,0.4,0.4c-0.9,0.7-1.8,0.4-2.8,0.3
		c-4.1-0.6-8.1-1.5-12.1-2.2c-0.9-0.2-1.8-0.2-2.8-0.1c-1.6,0.1-3.2-0.3-4.4-1.3c-2.2-1.7-4.7-2-7.3-1.8c-0.8,0.1-1.5,0.4-2.2,0.8
		c-1.4,0.8-2.7,1.8-4.1,2.7c-0.8,0.5-1.6,0.9-2.6,0.9c-1.1-0.3-1.1-1.3-1.1-2.1c0-1.7-0.3-3.3-0.8-4.9c-0.4-1.4,0.1-2.8,0.2-4.2
		c0.3-2.9,0.6-5.9,1.1-8.8c0.3-1.7,0.9-3.4,1.8-5c0.7-1.2,0.2-2.5,0.2-3.8c-0.1-3.5-0.1-6.9,0-10.4c0-2.6-0.9-4.9-1.7-7.3
		c-0.2-0.6-0.5-0.9-1.1-0.3c-0.7,0.6-1.4,1.2-2.4,0.7c-1.5,0-2.7-0.7-3.5-1.8c-1-1.3-1.8-2.7-2.3-4.3c1-1.7,2-3.5,3-5.2
		c0.1-1.1,0.9-1.9,1.6-2.7c1.4-1.6,2.7-3.3,4.9-3.9c1.8-0.5,3.4-1.4,5.2-2c0.7-0.3,1.5-0.5,2.1-1c0.4-0.3,0.8-0.4,1.2,0.1
		c0.6,1.3,1.8,2.1,3,2.8c0.8,0.5,1.6,1,2.2,1.7c1.8,2,4.1,2.5,6.7,2.2c0.4,0,0.7-0.1,1.1-0.1c2.8-0.1,4.9-1.5,6.3-3.9
		c0.2-0.4,0.3-0.8,0.6-1.1c0.8-0.5,1.7,0,2.6-0.2c1.4,0.2,2.6,0.6,3.7,1.6c0.2,0.1,0.4,0.3,0.6,0.3c2.1,0.4,3.6,1.7,5.1,3
		c2,1.7,4.2,3.3,5.9,5.4c0.6,0.7,0.7,1.4,0.2,2.2c-0.8,1.5-1.7,2.8-3.1,3.8c-0.9,0.1-1.1-0.6-1.3-1.1c-0.4-0.9-0.9-0.8-1.4-0.2
		c-1.1,1.2-2.2,2.5-2.6,4.1C205.1,171.7,204.9,172.6,204,173.1z"/>
	<path id="XMLID_942_" class="st20" d="M251.6,218c-0.6,1.2-0.7,2.6-0.4,3.9c0.2,0.8,0.1,1.4-0.4,2c-1.6,1.3-3.6,1.7-5.6,1.6
		c-3-0.1-5.9-0.7-8.6-2.3c-0.9-0.6-1.6-1.3-2.3-2.1c-1.4-1-2.3-2.4-2.6-4.1c-0.4-2.6-1-5.1-1-7.8c0-3.2,0.8-6.1,1.8-9.1
		c0.3-0.8,0.1-1.7,0.1-2.6c0.4-0.7,0.8-0.6,1.1,0.1c0.4,0.8,1,1.4,1.8,1.9c3.7,2.2,7.3,4.7,10.9,7.1c2.4,1.6,4.5,1.4,6.8,0.2
		c0.2-0.1,0.5-0.3,0.5-0.6s-0.3-0.5-0.5-0.6c-0.4-0.2-0.8-0.2-1.2-0.3c-0.6-0.1-1.2-0.3-1.6-0.8c-0.4-0.4-0.7-0.8-0.5-1.3
		c0.2-0.6,0.8-0.5,1.3-0.4c0.9,0,1.7,0.5,2.5,0.8c0.4,0.1,0.9,0.3,1.1-0.2c0.2-0.4-0.2-0.7-0.5-0.9c-1.1-0.9-2.3-1.8-3.6-1.9
		c-2.6-0.2-4.8-1.4-6.8-2.9c-3.4-2.5-6.2-5.5-9.2-8.3c-0.2-0.2-0.2-0.4-0.3-0.6c0.8-3,0.1-6-0.2-9c-0.1-1.6-0.1-3.2-0.7-4.7
		c0.7-2.3,1.2-4.5,3.3-6.1c2.2-1.6,3.4-3.9,2.9-6.8c-0.5-2.4-1.3-4.7-3-6.5c-0.3-0.3-0.3-0.6-0.1-0.9c1.3-1.4,3.1-2,4.7-3.1
		c0.2,0.1,0.3,0.4,0.2,0.6c-0.6,1.2,0,2.2,0.7,3.2c0.3,0.5,0.6,0.9,0.9,1.4c2,3.5,5.3,4.3,9,4.2c3-0.1,5.3-3.2,5.5-6.2
		c0-0.7-0.5-1-1.1-1.3c-0.5-0.3-1.3-0.4-0.9-1.3c2.7-0.3,4.7,0.9,6.3,3c-0.6,0.3-0.8,0.6-0.8,1.3c0.1,3.1,0.7,6,2.1,8.8
		c1,2.1,2,4.2,0.5,6.4c-0.3,2.3-0.6,4.6-0.7,6.8c-0.1,2.7-0.1,5.4,0,8.1c0,0.6,0.1,1.1,0,1.6c-0.4,2.3-0.3,4.7,0.6,6.9
		c0.2,0.5,0.1,1-0.1,1.5c-1,2.2-1.8,4.6-3.1,6.6c-1.7,2.6-3,5.4-4.1,8.3c-0.3,0.8-0.6,1.5-1.2,2.2c-0.2,0.2-0.5,0.4-0.8,0.6
		C253,215,252.3,216.5,251.6,218z"/>
	<path id="XMLID_941_" class="st21" d="M278.9,169.1c0.1,0.1,0.4,0.1,0.4,0.3c0.1,0.2-0.1,0.3-0.3,0.3c-1.3,0.1-0.8,0.9-0.5,1.4
		c0.5,0.8,1.1,1.4,2.1,1.6c4.1,1,8.3,1.8,12.6,1.7c3.5-0.2,6.8,0.7,10.1,1.6c4,1.2,8,1.8,12.2,1.2c0.7-0.1,1.4-0.1,2,0.1
		c0.8,0.2,1.6,0.4,2.2-1c0.1,0.8,0.1,1.2,0.1,1.6c-0.4,1.2-0.1,2.4,0.1,3.6c0.3,1.6,0.2,3.2-0.3,4.7c-0.7,2.1-0.7,4.2-1,6.3
		c-0.1,0.9-0.3,1.8-0.5,2.7c-0.7,2.5-0.9,5.1-0.4,7.7c0.1,0.3,0,0.6,0,1c0,1.9-0.1,2-2,2c-1.5,1.1-3.2,0.6-4.8,0.8
		c-2.9,0.4-5.7,0-8.5-0.6c-0.7-0.2-1.4-0.6-2-1c-3.1-1.2-6.2-2.4-9.3-3.6c-2-0.8-2-0.8-1.5-2.6c-0.8,0.4-1.2,1.2-1.8,1.8
		c-0.4,0.4-0.8,0.7-1.3,0.4c-1.3-0.6-2.5-1.2-3.8-1.9c-0.3-0.2-0.2-0.6,0-0.7c1-1,0.2-1.2-0.6-1.7c-3.5-2.4-7.7-3.1-11.6-4.4
		c-0.9-0.3-1.7-0.6-2.5-1.1s-1.1-1-0.9-1.9c0.6-1.7,1.9-3.1,2.6-4.8c1-3.2,2.8-6.1,3.8-9.3c0-0.9,0-1.8,0.2-2.7
		C274.5,169.9,276.7,169.5,278.9,169.1z"/>
	<path id="XMLID_872_" class="st22" d="M194.6,282.6c0,0.2,0,0.4,0,0.5c-0.1,0.8-0.7,0.9-1.3,1c-2.3,0.1-4.6,0-6.9,0.1
		c-0.4,0-0.8-0.1-1-0.5c0.7-3.1,0.6-6.2-0.4-9.3c-1.9-6-3.7-11.9-5.2-18c-0.9-3.5-0.4-6.9,0.1-10.4c0.5-3.2,0.2-6.4-1.5-9.3
		c-0.3-0.5-0.6-0.9-1.1-1.2c-0.4-1.9,0.1-3.5,1.4-4.8c2.1-2.2,4.8-3.2,7.8-3.3c2.2-0.1,3.6,1.1,4.3,3.2c0.2,0.8,0.4,1.7,0.5,2.6
		c0.1,1.1,0.2,2.2,0.6,3.3c0.5,1.6,1,3.3,0.9,5c0,0.6,0.2,1.2,1,1.2c4,0,7.9,0.5,11.9,0.4c0.2,0,0.4,0,0.6,0
		c1.5-0.2,1.5-0.2,1.7,1.3c0.1,4,0.8,8,1.6,11.9c0.7,3.4,0.1,6.8-1.3,10.1c-1.5,3.5-2.9,7-3.4,10.8c-0.3,2.1-0.4,4.2,0.4,6.2
		c0.3,0.8-0.4,0.8-0.8,0.9c-1,0.1-1.9,0.5-2.8,1c-2.6,1.4-4.4,0.5-5.1-2.4c-0.2-0.7-0.1-1.5-0.3-2.2c-0.1-2.4,0.4-4.9,0.3-7.3
		c0-1.8-0.1-3.6-0.7-5.3c-1.1-2.9-1.1-5.7-0.2-8.5c0.1-0.4,0.1-0.9,0.3-1.3c1.1-2.2,0.6-4.1-1-6c-1.4-1.7-1.3-3.9-1.5-5.9
		c-0.1-0.5,0.1-1.1-0.6-1.6c-0.7,1.7-0.6,3.4-0.4,5c0.3,2.5,1,5,1.3,7.5c0.3,2.8,0.3,5.5,0,8.3c-0.3,2.6,0.2,5.2-0.4,7.7
		c-0.7,2.8,0.3,5.2,1.2,7.6C194.7,281.4,195,282,194.6,282.6z"/>
	<path id="XMLID_861_" class="st23" d="M207.8,244.4c-0.3-0.3-0.1-0.8-0.3-1.2c-2.2,0.6-4.4,0.3-6.6,0.2c-2.4-0.1-4.8-0.4-7.3-0.2
		c-0.8,0-1.4-0.3-1.3-1.1c0.4-2.6-0.8-4.9-1.2-7.4c-0.2-1-0.2-2-0.4-3c-0.7-3.1-2-4.3-5-4c-2.2,0.3-4.4,1-6.1,2.6
		c-1.3,1.1-2.1,2.4-2,4.2c0,0.3-0.1,0.6-0.2,0.9c-0.8-0.6-1.3-1.4-1.6-2.4c-0.4-1.8-1.6-3.3-2.6-4.8c-0.5-0.7-0.9-1.4-1.1-2.2
		c-0.6-3.4-2.2-6.3-4.4-9c1-0.5,2-1.1,3-1.6c0.4-0.2,0.8-0.4,1-0.6c2.4-2.4,5.3-2.7,8.4-2.4c1.5,0.2,2.7,1.1,3.9,1.9
		c1.2,0.8,2.4,1.2,3.9,1.2c3.3-0.2,6.5,0.8,9.7,1.4c2.3,0.5,4.7,0.7,7,1.1c0.4,0.1,0.9,0.3,1.2-0.3c-0.1-0.1-0.1-0.2,0.1-0.2
		c0.3-0.1,0.5,0,0.5,0.4c0.3,2.9,0.6,5.8,0.7,8.7c0.1,2.2,0.4,4.4,0.8,6.5c0.6,3,1.3,6,1.6,9c0.1,0.9-0.1,1.4-1,1.3
		C208,243.5,207.9,243.9,207.8,244.4z"/>
	<path id="XMLID_860_" class="st24" d="M255.9,152c0,0.8,0.6,1,1.1,1c1.5,0.2,1.5,1.2,1.2,2.3c-1,4.7-4.3,6.5-9.3,5.5
		c-4.3-0.9-6-4.1-7.7-7.4c-0.4-0.8,0.5-1.3,0.4-2c1.7-1.2,2.1-3.7,0.9-5.3c-0.3-0.3-0.6-0.2-0.9-0.2c-0.6,0-1.2,0-1.8-0.3
		c-2.2-0.9-3.4-6.1-1.9-7.9c1.2-0.4,1.5-1.3,1.3-2.5c-0.6-3.4,2.6-8.8,7.5-9c3.4-0.1,6.4,0.6,9.2,2.3c1.6,1,2.3,2.5,2.3,4.3
		c0.1,1.2,0,2.4,0,3.6c-0.1,0.5,0,1,0.4,1.4c1.2,1.1,1.4,3.5,0.5,4.8c-0.1,0.1-0.2,0.3-0.3,0.4C255.9,145.6,255,148.3,255.9,152z"/>
	<path id="XMLID_859_" class="st24" d="M237,154.5c1.1,1,1.7,2.3,2.3,3.6c1.4,3.2,2.1,6.3-0.3,9.4c-0.3,0.4-0.6,1-1.1,1.2
		c-2.6,1.2-2.8,3.9-3.8,6c-0.6,2.6-1.6,5.1-2.6,7.7c-1,2.8-1.1,2.7,1.4,4.4c0.7,0.5,1.7,0.8,2,1.8c3.9,3.5,7.3,7.5,11.9,10.2
		c1.1,0.7,2.2,1.1,3.4,1.2c2,0.1,3.5,1.3,4.9,2.4c0.4,0.3,0.8,0.9,0.5,1.3c-0.2,0.3-0.8,0.4-1.4,0.3c-1.3-0.3-2.5-1.3-3.9-0.9
		c0.3,1.8,1.9,1.8,3.2,2.1c0.5,0.1,1,0,1.1,0.8c0,0.7-0.4,1.2-0.9,1.1c-0.8,0-1.3,0.5-1.8,0.7c-1.6,0.8-2.8,0.4-4.1-0.4
		c-4.6-2.6-8.9-5.7-13.3-8.7c-0.4-0.3-0.9-0.5-0.7-1.3c0.1-0.6-0.5-0.1-0.7,0c-2-2-3.9-4.1-6.4-5.6c-0.8-0.6-0.5-1.6-1.2-2.4
		c-0.9-1-1.4-2.3-2.4-3.3c-0.4-0.4-0.9-1.1-0.6-1.8c-0.8-3.2,1.1-5.9,1.8-8.8c0.9-3.9,2.7-7.5,4.5-10.9c0.7-1.2,1.2-2.4,1.6-3.8
		c0.7-2.5,2.7-4,4.7-5.3C235.6,155.2,236.3,154.9,237,154.5z"/>
	<path id="XMLID_858_" class="st25" d="M268.6,104.8c-0.7,0.5-0.1,0.9,0.1,1.3c0.3,0.7,0.7,1.4,1.2,2.2c-1.1-0.3-1.9-0.4-2.4-1.3
		c-1.1-1.9-2.7-3.6-2.7-6c0.1-2.9,1.1-5.5,2.9-7.8c1.8-2.2,3.9-3.9,5.9-5.7c0.8-0.8,1.5-1.7,2.3-2.5c2.3-2.3,4.9-2.4,7.9-1.1
		c1.8,0.7,3.5,1.8,5.5,2.2c2.2,0.5,3.7,1.9,4.8,3.6c1.4,2.4,2.2,5,1.9,7.8c-0.3,3-0.8,6,0.5,8.9c0.1,0.2,0,0.5,0,0.7
		c-0.2,0.6-0.6,1-1.2,0.4c-1-0.8-2.1-1.4-3.3-2.1c-1.1-0.7-1.6-1.9-2-3.1c-0.5-1.4-1-2.8-1.9-4c-0.6-0.7-1.2-1.2-2.1-1.5
		c-1.1-0.3-1.7,0.1-1.8,1.2c-0.1,0.4-0.1,0.9,0.1,1.2c0.6,1.3-0.1,2.4-0.2,3.7c0,0.7-0.6,0.9-1.2,0.7c-0.7-0.3-1.3-0.7-1.9-1.2
		c-2-1.8-4.6-1.9-7-2.4c-0.3-0.1-0.6,0-0.7,0.3c-0.8,2-2.5,3.1-4.3,4C268.9,104.5,268.7,104.7,268.6,104.8z"/>
	<path id="XMLID_857_" class="st26" d="M268.6,104.8c0.1-0.4,0-0.6,0.6-0.9c0.9-0.5,2.4-0.6,2.7-2.1c0.2-0.7,1.5-0.8,1-1.9
		c-0.1-0.2,0.3-0.3,0.5-0.3c1.8,0.5,3.7,0.6,5.5,1.2c1.5,0.5,2.5,1.7,3.8,2.5c0.9,0.6,1.1,0.4,1.2-0.6c0.2-1.5,0-2.9,0-4.4
		c0-1.6,0.9-2.2,2.4-1.7c1.3,0.5,2.3,1.4,2.8,2.6c0.5,1,0.9,2.1,1.3,3.2c0.6,1.5,1.3,2.8,3,3.3c0.5,0.2,1,0.6,1.5,1
		c0.9,0.7,0.9,0.7,1.6,0.3c1,1.3,2.4,2.1,3.7,3.1l-0.1,0.1c0.8,1.5-0.6,1.8-1.4,2.3c-3.2,2-6.4,4.1-10.2,4.8c-0.2,0-0.5,0.2-0.7,0.4
		c-0.7,0.7-1.6,1.3-2.4,1.9c-2.1,1.4-3,1.2-4.3-1c-0.1-0.1-0.3-0.2-0.4-0.3c-0.7-1.2-1.9-1.8-3.2-2.3c-0.4-0.1-0.8-0.5-1.1-0.8
		c-0.3-0.3-0.5-0.5-1-0.3c-1.1,0.5-1.6-0.1-1.9-1.1c-0.2-0.6-0.3-1.2-0.3-1.9c0.1-0.7-0.1-1.4-0.8-1.8c-1.7-1.2-2.5-3-3.4-4.8
		C269,105.3,268.9,105,268.6,104.8z"/>
	<path id="XMLID_856_" class="st27" d="M198.2,151.7c0,0.5-0.3,0.6-0.8,0.4c-0.6-0.2-1.2-0.2-1.8-0.1c-2.7-1.4-3-2.9-1.2-5.1
		c2-2.3,2.7-5,2.3-8c-0.1-1.1-0.1-2.1,0-3.2c0-0.3,0.1-0.6,0.1-1c0.2-2.8-0.5-3.6-3.3-3.6c-1,0-1.9,0.2-2.9,0.4
		c-0.9,0.2-1.8,0.4-2.7,0.2c-1.6-0.2-2.8,0.6-3.8,1.7c-1.4,1.4-2.9,2.8-4.6,4c-1.3,1-1.7,1-3.1,0.1c-0.3-0.2-0.5-0.6-0.8-0.4
		c-0.4,0.2-0.3,0.6-0.3,1c0,0.5,0.1,1,0.5,1.4c0.5,0.5,0.5,1,0.4,1.5c-0.4,2-0.7,4-1.7,5.8c-0.8,1.4-0.8,3.2-2,4.4
		c-1.5,0.6-2.9,1.3-4.4,1.8c-2.4,0.7-4.3,2.1-5.7,4.2c-0.5,0.8-1.1,1.6-1.7,2.3c-0.6-0.5-0.3-1.1,0-1.4c0.8-0.8,1.3-1.9,2.3-2.5
		c1.2-0.8,1.8-2.3,2.7-3.4c0.2-0.2,0.2-0.6,0.4-0.7c1.7-0.8,2.1-2.5,2.9-3.9c0.4-0.6,0.6-1.1,0.6-1.9c-0.1-1.3-0.1-2.7,0.8-3.8
		c0.2-0.3,0.4-0.7,0.2-1c-0.1-0.3-0.2-0.6,0-0.9c1-1.9,1.5-3.9,2.1-5.9c0.1-0.2,0.3-0.4,0.2-0.5c-0.7-2.4,1.7-4.1,1.4-6.4
		c0-0.1,0-0.3,0.1-0.4c1.6-1.7,2.2-4.1,4.5-5.3c4.4-2.3,8.6-2.7,13-0.1c1.1,0.7,2.4,1.1,3.4,2c1.9,1.7,2.7,3.9,2.8,6.3
		c0.1,1.8,0.3,3.6-0.1,5.4c-0.2,1,0.7,1.9,0.2,2.9c-0.9,2.2,0,4.7-0.6,7c-0.1,0.5,0,1.1,0.3,1.6c0.6,1.3,0.9,2.7,0.1,4.1
		C198.1,151.1,198.2,151.5,198.2,151.7z"/>
	<path id="XMLID_855_" class="st28" d="M258.4,136.5c-0.5-0.4-0.3-1-0.3-1.6c0.4-5.6-2.5-6.7-6.6-7.9c-2-0.6-3.9-0.4-5.8-0.2
		c-1.7,0.2-3.2,1.2-4.2,2.6c-1.3,1.9-2.2,3.9-1.8,6.4c0.3,1.7,0.1,1.8-1.7,1.9c-0.5-0.9-1.9-1.4-1.4-2.9c0-0.1-0.5-0.6-0.9-0.7
		c-1-0.2-1.2-0.7-0.7-1.6c0.5-1.1,0.8-2-0.4-3c-0.4-0.3-0.6-1.3-0.5-1.9c0.2-1.2,0-2.5,0.2-3.6c0.1-0.7-0.1-1.4-0.1-2
		c0.1-0.6,0-1.1,0.6-1.5c1.2-0.8,1.6-2.4,2.7-3.4c0.1,0,0-0.2,0-0.3c1.6-0.6,2.7-1.9,4-2.8c2.2-1.6,4.9-0.9,7.2-1.6
		c1.4-0.4,2.5,0.2,3.6,0c1.2-0.2,2,1.2,3.3,0.6c0.1,0,0.4,0.3,0.4,0.3c-0.6,1.2,1,1.9,0.7,3.1c-0.1,0.4-0.1,1,0.7,0.3
		c0.3-0.3,0.9,0.5,1.3,0.9s-0.1,0.6-0.3,0.9c-0.2,0.2-0.4,0.4-0.6,0.6c1.1,0.4,1.6,1.1,1.1,2.2c-0.3,0.6,0.4,0.8,0.5,1.3
		c0.2,1.8,0.7,3.6-0.1,5.3c-1.2,2.6-0.6,5.3-0.8,7.9C258.6,136.3,258.6,136.4,258.4,136.5z"/>
	<path id="XMLID_854_" class="st29" d="M158,165c0.6,0.5,1,1.2,1.3,1.9c0.8,2.2,2.4,3.5,4.6,4.2c-4.6,6.3-9.8,12.1-15.3,17.6
		c-1.4,1.5-2.8,3-3.9,4.8c-0.9,1.5-1.3,3.1-1.2,4.9c0.2,1.9-0.2,3.7-0.9,5.4c-0.3,0.6-0.5,1.5-1.5,1.3c-0.2,0-0.2,0.1-0.3,0.2
		c-1.1,1.3-1.6,1.4-2.7,0.2c-1-1.1-1.7-2.4-1.8-3.9c0-0.3-0.1-0.6-0.2-0.9c-0.9-1.5-0.3-3.2-0.3-4.8c0-0.9,0.8-1.5,1.5-1.9
		c1.4-0.8,2.2-2,2.8-3.4c1.6-3.6,3.9-6.9,6.2-10C150.2,175.4,154.1,170.2,158,165z"/>
	<path id="XMLID_853_" class="st29" d="M222.3,184.4c0.6,1.9,2.3,2.9,3.1,4.7c0.4,0.9,0.9,1.8,1,2.8c0.1,1.1-0.2,2-0.8,2.9
		c-0.8,1.3-1.7,1.6-2.8,0.7c-1.1-0.8-2.5-0.9-3.5-1.9c-0.1-0.2-0.5-0.2-0.6-0.3c-0.3-2.3-2.5-2.6-3.9-3.7c-1.8-1.5-2.7-3.5-3.8-5.3
		c-1.8-3.3-3.7-6.4-6-9.3c-0.4-0.5-0.7-1.2-1.1-1.7c1-2.2,1.5-4.7,3.4-6.5c1.3-1.2,1.5-1.2,2.2,0.4c0.2,0.5,0.5,0.8,1,1.1
		c2.5,3.8,4.9,7.6,7.5,11.4C219.4,181.3,220.6,183.1,222.3,184.4z"/>
	<path id="XMLID_852_" class="st30" d="M275.9,140.7h0.1c0.8,0.5,1,1.6,2.2,1.6c1.6,0,3.1-0.3,4.4-1.2c0.5-0.3,0.9-1.1,1.5-0.5
		c0.5,0.5,0.2,1.3,0,1.9c-0.3,0.8-1,1.3-1.4,2c-1.5,2.7-1,5.2,0.6,7.6c-0.6,1.7-0.8,3.4-1.2,5.1c-0.6,2.3-2.5,3.8-4.8,4.3
		c-2,0.4-3.2-1.2-4.3-2.5c-1.8-2-1.4-4.3-1.5-6.7c-0.1-1.7,0.8-3,1.1-4.5c0.1-0.7,0.7-1.2,1.2-1.4c0.9-0.3,0.9-0.9,1-1.7
		C274.9,143.4,275.2,142,275.9,140.7z"/>
	<path id="XMLID_851_" class="st31" d="M273.8,175.3c0.3,0.2,0.3,0.4,0.2,0.7c-1.3,2.9-2.5,5.8-3.8,8.7c-0.8,0.1-1-0.6-1.2-1.1
		c-2.3-3.9-4.3-7.9-5.4-12.3c0-0.2-0.1-0.6,0.1-0.7c1.4-1.2,0.8-2.5,0.2-3.8c-1.9-3.8-3-7.7-2.7-11.9c0.4,0,0.7,0,1.1,0
		c1.5,0.6,3.1,1.1,4.5,1.9c1.8,1,2.5,2.6,2.7,4.6C269.9,166.4,270.5,171.3,273.8,175.3z"/>
	<path id="XMLID_850_" class="st32" d="M185.4,283.7c1,0.5,2,0,2.9,0c1.6,0.1,3.2,0,4.8,0c0.6,0,1.1-0.1,1.4-0.6
		c0.7,1.5-0.3,2.9-0.4,4.4c-0.1,1.6-0.5,3.2-0.7,4.9c-0.2,1.4-1.2,2.3-2.6,2.1c-2.3-0.3-4.5,0-6.6,0.7c-0.8,0.3-1.7,0.7-2.4-0.4
		c-0.2-1.5,0.6-2.7,1.1-4C183.8,288.5,184.2,285.9,185.4,283.7z"/>
	<path id="XMLID_849_" class="st33" d="M267.7,189.5c-0.2,0.8,0,1.3,0.8,1.7c2.2,1.2,4.6,1.9,7,2.4c3.1,0.7,5.6,2.4,8.4,3.7
		c0.5,0.2,0.5,0.5,0.1,0.9s-0.9,0.7-0.9,1.3c-5.4,4.5-9.9,9.8-13.3,16c-0.5,0.9-0.6,1.7-0.2,2.7c1.1,3.3,0.9,6.7,0.6,10.1
		c-0.3,3.2-0.9,6.5,0.1,9.7c0.2,0.8,0,1.7,0,2.5c0.2,2.9-0.6,5.6-1.8,8.1c-0.7,1.5-2.3,2-3.9,1.7c-1.5-0.4-3-1.3-4.7-0.3
		c-0.5,0.3-0.8-0.4-0.8-0.9c0-1.1-0.4-2.1-0.7-3.1c-0.4-1.4-0.1-2.7,1-3.8c0.2-1.3-0.5-2.6-0.5-3.9c-0.2-0.4-0.1-0.9-0.4-1.2
		c-0.1-1.1-0.4-2.2-0.6-3.3c-0.1-0.5,0.1-1-0.1-1.5c-0.1-0.4-0.2-0.7-0.2-1.1c0.1-0.5,0-1-0.2-1.5c-1-4.5-1.7-9-2.3-13.6
		c-0.1-0.8-0.3-1.6,0.2-2.4c1.1-1.8,1.6-3.9,2.5-5.7c1.6-3.4,3.9-6.5,5.2-10.1c0.3-0.8,0.6-1.6,0.8-2.4c0.4-2.2,1.6-4,3.2-5.6
		C267.2,189.5,267.4,189.3,267.7,189.5z"/>
	<path id="XMLID_848_" class="st33" d="M300.8,205.3c0.2,0,0.4-0.3,0.7-0.1c3.1,1.7,6.4,1.5,9.8,1.3c0.9-0.1,1.7-0.1,2.6-0.2
		c0.6,0,1.3,0.2,1.7-0.6c0.1-0.2,0.3-0.2,0.4-0.1c0.1,0.1,0.1,0.3,0.1,0.4c-0.6,1.1-0.4,2.4-0.5,3.5c-0.2,2.2-0.6,4.3-1,6.4
		c-0.7,3.9-0.3,7.5,0.8,11.3c1.3,4.3,2.2,8.7,2.4,13.2c0.1,2.7,0.1,5.5-0.3,8.3c-0.2,1.4-0.2,2.8-0.3,4.3c-0.2,2.3-0.5,4.6-0.5,6.9
		c0,2.5,0.2,5,1,7.5c0.7,1.4,0.8,2.9,0.8,4.5c0,0.8-0.2,1.7-1,2.1s-1.5,0.1-2.2-0.4c-0.2-0.2-0.5-0.3-0.6-0.5
		c-1.2-1.3-2.5-1.5-4.1-0.8c-1.3,0.6-1.7,0.3-2-0.9c-0.5-1.9-0.4-3.9,0.1-5.7c0.9-3.8,0.1-7.4-0.7-11c-1.1-4.9-2.3-9.8-3.1-14.8
		c-0.2-0.9-0.2-1.9-0.1-2.9c0.2-2.1-0.4-4-1.3-5.8c-2.4-5-3.1-10.2-2.3-15.7C301.5,211.9,301.2,208.6,300.8,205.3z"/>
	<path id="XMLID_847_" class="st34" d="M277.2,289.5c-2.2,4.2-6.1,6.1-10.4,6.2c-5.5,0.2-10.5-1.5-14.2-6.4
		c-3.5-4.8-3.2-13.7,0.2-17.8c2.8-3.4,6.1-5.8,10.6-6.4c0.5-0.1,1.1-0.2,1.6-0.3c2.7,0,5.2,1,7.6,2.2c0.5,0.3,1,0.5,1.5,0.6
		c1.6,1.3,3.4,2.4,4.2,4.5c-0.6,0.3-1.2,0.1-1.8,0.1c-0.7,0-1.1,0.2-0.8,1c0.1,0.3,0.2,0.7,0.2,1c-0.5,2.3,0.9,3.8,1.9,5.4
		c0.3,0.4,0.5,0.5,0.9,0.3c0.7-0.2,1.2-0.6,1.1-1.4c0-1-0.3-1.9-0.3-2.9c0-0.4-0.3-0.9,0.2-1.3c1.5,2.8,1.5,5.7,0.5,8.6
		c-0.7,2.2-1.4,4.5-2.8,6.4c-0.5-0.4-0.5-1-0.7-1.5c-0.2-0.7-0.6-0.9-1.2-0.4c-0.9,0.7-2,1.2-3.1,1.6c-0.6,0.2-0.9,0.6-1.2,1.1
		c-0.3,0.7-0.7,1.4-1.2,2c-0.3,0.4-0.6,0.8-0.1,1.2c0.4,0.4,0.9,0.6,1.5,0.3c1.5-0.8,3-1.6,3.9-3.2c0.2-0.4,0.5-0.8,0.9-1
		C276.7,289.2,277.1,288.9,277.2,289.5z"/>
	<path id="XMLID_846_" class="st24" d="M234.5,221.1c0.1-0.2,0.3-0.5,0.4-0.3c0.6,1.8,2.3,2.3,3.7,2.9c4,1.7,8.1,2,12.2,0.2
		c0.1,6,0.1,12,0.3,18c0.1,3.5-1.5,5.7-4.4,7.2c-1.6,0.8-3.2,1.5-4.8,2.3c-1.6,0.8-3.1,1.8-4.1,3.3c-0.4,0.6-0.1,1.3-0.1,1.9
		c0,2-1.4,3-3.4,3.1c-3.8,0-7.3-5.1-4.4-9c0.9-1.3,1.6-2.8,3.2-3.4c0.1-3.7,2.5-5.6,5.7-6.9c0.9-0.4,1.5-0.6,1.2-1.9
		c-1-3.7-2.1-7.3-3.6-10.8C235.4,225.4,235,223.2,234.5,221.1z"/>
	<path id="XMLID_845_" class="st35" d="M259.4,242.2c-0.2,0.7-0.5,1.3-0.7,2c-0.1,0.4-0.2,1,0,1.3c0.7,1.3,0.9,2.8,0.7,4.6
		c1.4-1.5,2.7-1.1,4.2-0.6c2.8,1,4.5,0.1,5.3-2.8c0.5-2.1,0.9-4.2,1.4-6.3c1,1.4,2,2.7,3.3,3.8c1.2,1,1,2.5,0.8,3.7
		c-0.2,1.3-0.6,2.6-1.3,3.8c-1.4,1.2-2.8,2.5-4.6,3.2c-1.1,0.4-2.1,0.8-3.2,0.5c-0.5-0.2-0.9,0.3-1.3,0.3c-1.5,0.3-2.5,1.3-3.3,2.5
		c-1.7,2.7-3.9,4.9-6.7,6.4c-3.7,2-8.4,2-11.3-1.3c-0.6-0.6-0.7-1.2-0.5-2c1-3.6,2.9-6.6,6.2-8.6c2.9-1.7,5.2-3.9,6.4-7.1
		C255.6,243.7,257.1,242.4,259.4,242.2z"/>
	<path id="XMLID_844_" class="st35" d="M308.5,271.2c0.2,0.7,0.6,1,1.3,0.7c0.3-0.1,0.7-0.2,1-0.4c1.4-0.7,2.5-0.4,3.6,0.7
		c0.4,0.5,0.9,0.9,1.5,1.2c1.1,0.6,1.8,0.3,2-1c0.2-1.6-0.1-3.1-0.5-4.6c-0.1-0.2-0.1-0.4,0.1-0.6c1.5,2.3,3.8,4.1,4.6,6.8
		c0.4,1.5-0.1,2.9-0.4,4.3c-0.7,2.8-1,5.6-1.5,8.5c-0.6,3.1-1.3,4.1-4.1,5c-2.7,0.8-5.3,1.3-8,0.4c-2.9-0.9-3.8-2.9-2.6-5.7
		c0.5-1.3,1.3-2.6,1.6-4.1c0.1-0.9-0.1-1.7-0.2-2.6c0-2.3,0.5-4.5,0.3-6.7C307.1,272.3,307.9,271.8,308.5,271.2z"/>
	<path id="XMLID_843_" class="st36" d="M233,247.1c-1.1,1.1-2.1,2.3-3,3.7c-1.8,3.2-0.9,5.3,1.2,7.4c1.1,1.1,2.6,1.1,4,1
		s2-1.1,2.1-2.6c0-0.6-0.6-1.5,0.5-1.9c0.1,5.6,1.5,11.2,1.4,16.8c0,1.3-0.3,2.5-0.5,3.8c-0.6,3-3,3.5-5.5,2.1
		c-2.3-1.4-3.4-3.7-4.2-6.1c-1-2.8-1.4-5.6-1-8.6c0.4-2.5-0.3-4.9-1.2-7.2c-1.2-3.1-0.8-5.1,1.2-6.9
		C229.5,247.3,231.2,247,233,247.1z"/>
	<path id="XMLID_842_" class="st32" d="M196.4,280.9c0.5,0.8,0.3,1.8,0.6,2.6c0.6,2,1.9,2.7,3.8,1.8c1.3-0.6,2.5-1.4,4.1-1.4
		c0.3,0,0.3-0.3,0.4-0.5c1.8-0.3,2.8,0.5,3.5,2.1c0.8,1.6,1.1,3.4,2.5,4.6c0,0.5,0.2,0.8,0.6,1.2c0.9,1,0.8,1.7-0.4,2.3
		c-1.5,0.8-3.2,1.1-4.9,0.9c-0.3,0-0.6-0.2-0.8-0.2c-2.9,0.6-4.7-1.3-6.7-2.8c-0.3-0.6-1-1-1.1-1.7c-0.4-0.8-0.8-1.5-1.5-2.1
		c-1-0.8-1.3-1.7-0.8-2.9c0.1-0.3,0-0.7,0-1.1C195.4,282.7,195.1,281.6,196.4,280.9z"/>
	<path id="XMLID_841_" class="st31" d="M263.9,255.7c0.4-0.6,0.8-0.8,1.7-0.6c1.8,0.4,3.2-0.7,4.7-1.5c1-0.5,1.5-1.8,2.8-1.9
		c0.6,0.6,0.2,1.3,0.2,2c0,4.6,0.8,9.2,0.9,13.9c-0.3,0.2-0.3,0.8-1,0.3c-2-1.4-4.2-2.4-6.6-2.5c-0.6,0-0.9-0.7-1.5-0.6
		c-0.3-1.9-0.6-3.7-0.8-5.6C264,258.1,264,256.9,263.9,255.7z"/>
	<path id="XMLID_840_" class="st31" d="M257.8,231c0.1,0.4,0.2,0.8,0.3,1.2c0.1,0.4,0.1,0.9,0,1.3c0.2,1.2,0.7,2.4,0.5,3.6h-0.1
		c-1.1-6.4-3.6-12.2-6.2-18.1c-0.2-0.4-0.4-0.7-0.6-1.1c0-2.4,1.7-3.5,3.6-4.4c0.2,3.7,0.9,7.3,1.5,10.9c0.3,1.7,0.6,3.5,0.9,5.2
		C258.1,230.1,257.9,230.5,257.8,231z"/>
	<path id="XMLID_839_" class="st37" d="M279.7,274.3c0.2,1.5,0.4,3,0.5,4.5c0.1,0.6-1.7,2-2.3,1.9c-0.3-0.1-0.4-0.5-0.5-0.8
		c-0.1-0.7-0.4-1.3-0.9-1.6c-1.1-0.8-1.2-1.8-1.1-3c0.1-0.9-0.1-1.8-0.3-2.6c-0.3-0.9,0.1-1,0.7-0.9c0.8,0.1,1.7-0.3,2.4,0.3
		C278.9,272.7,279.4,273.5,279.7,274.3z"/>
	<path id="XMLID_838_" class="st37" d="M277.2,289.5c-0.6-0.5-0.8,0.1-1,0.4c-1.1,2.1-3,3.1-4.9,4.2c-0.9,0.5-1.4-0.5-1.9-0.9
		c-0.6-0.4,0.2-0.7,0.3-1.1c1-2.4,2.8-3.9,5.2-4.8c0.2-0.1,0.4-0.3,0.7-0.5c0.7-0.5,1.2-0.8,1.4,0.4c0.1,0.7,0.5,1.3,0.5,2
		C277.4,289.4,277.3,289.4,277.2,289.5z"/>
	<path id="XMLID_837_" class="st38" d="M258.4,237.1h0.1c0.5,0.3,0.3,0.8,0.3,1.2C258.4,238,258.7,237.5,258.4,237.1z"/>
	<path id="XMLID_835_" class="st39" d="M197.9,289.8c0.3,0.6,1,1,1.1,1.7C198.5,291,197.6,290.8,197.9,289.8z"/>
	<path id="XMLID_834_" class="st40" d="M176,141.2c-0.1-0.5,0.2-0.8-0.4-1.3c-0.8-0.7-0.6-2-0.4-3c0.1-0.6,0.6-0.4,0.9-0.1
		c2.3,1.6,2.3,1.5,4.5-0.3c1.2-1,2.3-2.1,3.5-3.2c1.3-1.2,2.7-2.2,4.7-1.6c0.4,0.1,0.7,0,1.1-0.2c1.7-0.6,3.5-0.7,5.3-0.6
		c1.1,0,1.8,0.4,1.9,1.7c0.2,1.2,0.3,2.3,0,3.6c-0.2,0.9-0.1,1.9,0,2.8c0.5,3.1-0.3,5.9-2.3,8.3c-0.2,0.3-0.5,0.5-0.7,0.9
		c-0.6,0.9-0.8,1.7,0.2,2.5c0.5,0.4,0.9,1,1.4,1.5c-0.1,1.8-2.6,4.7-5.7,5.1c-2.3,0.3-4.6,0.9-6.8-0.3c-2.7-1.5-5-3.6-7.3-5.7
		c-0.2-0.1-0.1-0.5-0.2-0.8c0.4-1.2,1.3-2,2.1-3c1-1.3,0.9-3-0.4-4.2C176.8,142.6,176.2,142.1,176,141.2z"/>
	<path id="XMLID_832_" class="st41" d="M206,217.5c0,0.1,0,0.2-0.1,0.2c-0.3,0-0.7,0-1.2,0C205.2,217.3,205.6,217.5,206,217.5z"/>
	<path id="XMLID_831_" class="st42" d="M267.7,189.5c-2,1.4-2.8,3.8-3.9,5.8c-0.9-1.1-1.3-2.5-1.2-3.8c0.3-2.9,0.2-5.7,0.2-8.5
		c0-3.5,0-7.1,0.8-10.6c0.1-0.3,0-0.6,0-1c1,2.3,2,4.7,3,7c1,2.2,2.1,4.5,3.6,6.4C269.8,186.5,268.5,187.8,267.7,189.5z"/>
	<path id="XMLID_830_" class="st42" d="M234.8,188.6c-1.3-0.9-2.6-1.9-4-2.7c-0.5-0.2-0.9-0.5-0.6-1.1c1.4-3.3,2.2-6.8,3.8-10.1
		c0.5,1.2,0.7,2.5,0.8,3.9c0.1,1.7,0.3,3.4,0.5,5.1C235.5,185.4,235.7,187.1,234.8,188.6z"/>
	<path id="XMLID_829_" class="st43" d="M257.8,231c0-0.5-0.1-0.9-0.1-1.4C258.3,230.1,258.2,230.5,257.8,231z"/>
	<path id="XMLID_828_" class="st44" d="M258.1,233.5c0-0.4,0-0.9,0-1.3C258.4,232.6,258.5,233.1,258.1,233.5z"/>
	<path id="XMLID_827_" class="st37" d="M264.8,285.1c-1.2,0.3-1.7-0.3-2-1.4c-0.4-1.3-0.9-2.6-1.4-3.8c-0.3-0.6-0.3-1,0.3-1.4
		c0.3-0.1,0.5-0.5,0.7-0.6c1.1-0.7,2.1-1.6,3.3-2.1c1.4-0.6,2.1,1.1,3.3,1.5c0.8,0.3,1.7,0.7,2.2,1.3c0.5,0.7-0.3,1.6-0.4,2.4
		c0,0.2,0,0.5-0.1,0.7c-0.3,1-0.3,2.3-0.9,3s-1.9,0.2-2.9,0.2C266.2,284.9,265.5,285.3,264.8,285.1z"/>
	<path id="XMLID_826_" class="st37" d="M253.4,282.4c-1.1-0.6-1.6-1.8-2.7-2.3c-0.4-0.2-0.2-0.9-0.1-1.3c0.3-1.2,0.8-2.4,1.1-3.6
		c0.4-1.7,1.6-2.4,3.1-2.7c0.6-0.1,0.8,0,0.8,0.7c0,1.4-0.4,2.9,0.4,4.3c0.2,0.3-0.1,0.5-0.2,0.7c-0.5,0.7-1,1.3-1.4,2
		C254,280.8,253.8,281.6,253.4,282.4z"/>
	<path id="XMLID_825_" class="st37" d="M255.2,286.9c1,1.3,2.1,1.3,3.2,1.3s2,0.1,2.4,1.4c0.2,0.8,0.9,1.5,1.4,2.2
		c0.1,0.2,0.4,0.4,0.4,0.7c0,0.5-0.4,0.6-0.6,0.6c-1,0-1.8,1.6-2.7,1c-1.2-0.9-2.6-1.5-3.8-2.4c-0.6-0.5-0.7-0.8-0.7-1.3
		C254.9,289.3,255,288.2,255.2,286.9z"/>
	<path id="XMLID_824_" class="st37" d="M260.1,269.1c1.2-2,2.4-3.4,4.6-3.4c2.3,0,4.3,0.7,5.7,2.7c0.3,0.4,0.2,0.5-0.2,0.7
		c-1.3,0.5-2.7,1.1-4,1.6c-0.4,0.2-0.8-0.1-1.2-0.3C263.6,269.5,262.1,268.9,260.1,269.1z"/>
</g>
<g id="XMLID_1511_">
	<path id="XMLID_1213_" class="st45" d="M47.7,158.2c-0.2-0.6-0.5-1.1-0.7-1.6c-0.5-1-0.6-1.9-0.4-3.1c0.4-2.3,0.9-4.5,1.8-6.7
		c0.9-2.1,2.2-3.8,3.9-5.1c1-0.8,2.2-0.7,3.4-0.8c1.3-0.1,2.4-0.4,3.5-0.9c1.2,0,2.5,0,3.7,0c0.8,0.4,1.7,0.4,2.6,0.4
		c3.6,0,6.5,2.6,7.2,6.1c0.5,2.6,0.6,5.2,0.8,7.8c0.1,1.6,0,3.1-1.2,4.3c-0.4,0.2-0.9,0.4-1.4,0.2c-0.5-0.5-0.7-1.1-0.6-1.7
		c0.2-1,0-1.9-0.1-2.8c-0.2-2.6-1.4-4-4-4.5c-2.3-0.4-4.5-1-6.9-0.5c-0.8,0.2-1.6,0-2.3-0.3c-0.3-0.1-0.7-0.2-1-0.3
		c-1.4-0.4-2.9-1-4.1,0.3c-1.3,1.5-2.2,3.1-1.6,5.2c0.4,1.6,0.3,3.3-0.4,4.9c-0.3,0.3-0.8,0.2-1.2,0.4c-0.2,0-0.3,0.1-0.5,0
		c-0.3-0.1-0.4-0.2-0.5-0.5C47.9,158.8,47.8,158.5,47.7,158.2z"/>
	<path id="XMLID_1212_" class="st46" d="M10,307.1c0.5-1.6,1.3-3.1,2.3-4.5c0.9-1.2,2.2-1.9,3.3-2.9c0.3-0.2,0.6-0.5,0.6-0.8
		c0.1-0.3,0.3-0.5,0.6-0.4c1,0.3,1.3,0.1,1.5-0.8c0.3-1.3,1.1-2.1,2-2.9c0.8-0.6,1.6-0.6,2.5-0.3c2,0.7,3,2.2,3.4,4.2
		c0.2,0.8,0.4,1.6,0.6,2.4c0.1,0.4,0.1,0.9,0.7,0.8c0.5-0.1,0.8-0.4,0.9-0.9c0.1-0.7,0.3-1.4,0.2-2.1c-0.2-1.3-0.2-2.6-0.6-3.8
		c-0.3-1-0.3-2,0-3c0.1-0.3,0.2-0.8,0.8-0.6c0.5,0.2,1.1,0.3,1.6,0.5c1.2,0.4,2,1.2,2,2.6c0,0.4,0.2,0.7,0.4,1
		c0.5,0.6,0.7,1.3,0.6,2.1c-0.1,0.5,0.1,0.8,0.4,1.2c0.6,0.8,0.5,1.5-0.4,2s-1.9,0.9-2.9,1c-2.6,0.2-4.1,1.9-5.6,3.7
		c-1.3,1.7-3,3-4.7,4.3c-0.9,0.7-1.9,1.2-2.9,1.9c-0.4,0.3-1,0.2-1.3-0.2c-0.5-0.5-0.8-0.4-1.2,0c-0.5,0.4-1.2,0.7-1.8,0.3
		c-0.6-0.4-0.4-1-0.3-1.7c0.3-1.7,1.3-3,2.2-4.6c-1.6,0.7-2.7,1.7-4,2.5c-0.4,0.2-0.7,0.5-1.2,0.4C10,308,10,307.5,10,307.1z"/>
	<path id="XMLID_1211_" class="st47" d="M43.6,418.1c0.4-2.5,1.1-4.9,1.8-7.3c0.7-2.3,1.4-4.5,1.1-6.9c-0.3-2.6-0.2-5.3-0.2-7.9
		c0-3,0.8-5.9,1.4-8.9c1.1-5,2.1-10,2.9-15.1c1-5.6,0.9-11.3,0.7-17c-0.1-2.3-0.2-4.6-0.2-6.9c0-4.1-0.2-8.2,0-12.3
		c-0.1-0.3-0.2-0.5-0.2-0.8c0-2.7-0.5-5.3-0.3-8c0.1-2.3,0.1-4.6-0.7-6.9c-1.3-4.3-2.3-8.7-2.8-13.1c-0.5-4.2-1.7-8.3-2.2-12.5
		c-0.4-3.5-1.2-7-1.2-10.6c0-1,0.1-1.9,0.2-2.9c0-0.4,0-0.7,0.4-1c0.7-0.1,0.5,0.6,0.7,0.9c0.2-3,1.5-5.8,2.6-8.6
		c1.7-0.6,3.4-0.2,5.1-0.2c0.4,0.1,0.5,0.4,0.7,0.6c1.5,2.4,3.3,4.7,4.5,7.3c0.3,0.6,0.6,0.5,1.1,0.3c1.4-0.7,2.5-1.8,3.7-2.8
		c3.9-3,7.8-5.9,11.7-8.8c0.7-0.5,1.6-0.6,1.7-1.7c0-0.3,0.5-0.2,0.7,0c0.3,1.4,0.9,2.7,1.3,4.1c0.2,0.7,0.7,1.3,1,2
		c0.7,2.8,1.4,5.5,2.8,8c0.3,0.6,0.6,1.3,0.6,2.1c-0.2,0.7,0.4,1.3,0.5,1.9c0.7,4.4,0.8,8.7,0.4,13.1c-0.5,6.7-2.1,13.2-3.5,19.8
		c-0.9,4.3-2,8.6-3.7,12.7c-0.3,0.8-0.1,1,0.7,1.1c1,0.1,2.1,0.2,3,0.8c0.5,1.1,0.1,2.2-0.1,3.3c-0.3,2.6-0.6,5.1-1,7.7
		c0,0.1,0,0,0,0.1c0,0.4-0.2,1,0.2,1.3c0.5,0.3,0.9-0.2,1.3-0.4c0.5-0.3,0.9-0.8,1.6-0.7c0,2.4,0.5,4.6,1.5,6.9
		c1.6,3.4,3.3,6.9,4,10.7c0.6,3.6,2.1,6.8,3.3,10.1c1.2,3.2,2,6.5,2.9,9.7c1,3.5,2.8,6.8,3.4,10.3c0.9,5.3,2.6,10.3,3.8,15.5
		c0.1,0.6,0.2,1.2,0.5,1.7c0.4,0.8,0,1-0.7,1c-0.2,0-0.4-0.3-0.5-0.1c-0.8,0.8-1.8,0.7-2.8,0.9c-0.6,0.1-1.1,0.5-1.6,0.8
		c-2.6,1.6-5.3,3.1-8.4,3.6c-2.2,0.4-4.4,0.3-6.7,0.1c-0.5-0.1-1.1-0.2-1-0.8c0.1-0.6-0.4-0.2-0.5-0.4c-0.2-0.4-0.2-0.9-0.2-1.4
		c0-3.1,0.2-6.3-0.3-9.4c-0.4-3.3-1-6.6-1.6-9.9c-1.1-5.5-2.8-10.7-4.4-16.1c-0.7-2.2-0.7-4.5-1.1-6.7c0-0.2,0-0.4,0.2-0.5
		c-0.3,0.2-0.3,0.5-0.3,0.7c-1.5,8.5-3.5,16.9-5.4,25.3c-0.6,2.7-0.8,5.5-0.8,8.3c-0.1,5.6-0.5,11.1-1.1,16.6
		c-0.1,0.5-0.2,1.1-0.5,1.5c-0.2,0-0.4,0.3-0.3,0.6c0.2,0.7-0.3,1.4-1.1,1.4c-0.3,0-0.5,0-0.7-0.2c-1.6-1.4-3.8-0.8-5.6-1.8
		c-1.8-1-3.7-1.6-5.6-2.2s-3.9-0.8-5.9-1C43.6,419.4,43.5,419.3,43.6,418.1z"/>
	<path id="XMLID_1210_" class="st48" d="M80,332.9c-1.2-0.3-2.5-0.7-3.8-0.6c-0.5,0-0.6-0.1-0.4-0.6c2.4-5.9,3.8-12,5-18.2
		c0.7-3.4,1.5-6.8,1.9-10.3c0.5-4,1-8.1,0.7-12.2c-0.1-1.9-0.4-3.8-0.7-5.7c0-0.2,0.3-1.1-0.7-0.9c-0.1,0,0.4-0.7,0.3-1.1
		c0.3-1.3,0.8-2.4,1.3-3.6c0.4-0.9,0.2-1.6-0.4-2.3c-0.7-0.7-1.4-1.3-2.2-1.9c-0.9-0.6-1.6-1.3-2.2-2.2c-1-1.3-1.2-3-1.9-4.4
		c-0.2-0.5-0.2-1.1-0.2-1.6s0.2-0.9,0.6-1.1c0.7-0.5,0.8-1.1,0.8-1.9c-0.1-1.3-0.4-2.5-1.1-3.6c-2-3.2-4.7-5.6-7.3-8.3
		c-1.5-1.6-2.6-3.3-3-5.4c-0.3-1.5-0.9-2.8-1.9-3.9c-1.2-1.4-1.8-3.1-2.2-4.8c-1-4.8-2.2-9.7-1.8-14.7c0.5-6.9,0.2-13.8,1.7-20.6
		c0.4-1.6,0.7-3.2,1.3-4.7c0.1-0.3,0.2-0.5,0.1-0.8c-0.1-0.4,0.1-0.9,0.3-1.2c1.7-3,2.7-6.3,3.7-9.6c0.8-2.5,2.2-4.6,3.2-6.9
		c0.3-0.7,0.5-1.4,0.2-2.1c-0.5-0.9-0.5-1.9-0.1-2.8c0.5-1.1,0.2-2-0.5-2.9c-0.1-0.3-0.4-0.6,0.2-0.8c1.3,1.3,1.9,3,2.3,4.8
		c0.1,0.6,0.3,1.1,0.7,1.5c1.1,1.1,2.1,2.3,3,3.5c0.7,0.9,1.7,1.3,2.7,1.7c2,0.7,3.9,1.5,5.7,2.6c0.6,0.3,1.3,0.5,1.9,0.7
		c1,0.3,2,0.7,2.8,1.4c1.3,1.1,2.9,1.3,4.4,1.8c0.1,0,0.2,0,0.3,0c2.5,0.4,3.9,1.7,4.5,4.2c0.5,2.2,1.4,4.2,2.1,6.3
		c1.7,4.9,3.4,9.8,4.7,14.9c0.9,3.5,2.4,6.8,3.3,10.3c0.9,3.4,2.3,6.7,3.3,10.1c0.5,1.6,0.7,3.2,0.9,4.9c0.2,1.9-0.2,3.8-1.2,5.4
		c-1.4,2.1-2.3,4.5-3.5,6.7c-2.5,4.9-5.2,9.8-7.9,14.6c-0.2,0.4-0.6,0.8-0.8,1.3c-0.5,0.8-0.9,1.5-0.5,2.6c0.4,1,0.2,2.2,0.5,3.3
		c-0.2,1-0.7,1.9-1.1,2.8c-4.5,9.4-8.4,19-12.1,28.7c-3,8.1-4.9,16.4-6.4,24.9c-0.1,0.7-0.2,1.4-0.3,2
		C80.5,332.4,80.6,332.9,80,332.9z"/>
	<path id="XMLID_1209_" class="st49" d="M44.2,281.1c-0.6,4,0.4,7.8,0.8,11.7c0.5,4.2,1.6,8.3,2.1,12.5c0.7,5.8,2.1,11.4,3.6,16.9
		c0.4,1.4,0.2,2.9,0.1,4.3c-0.2,2.7,0.5,5.4,0.2,8.1c0,0.4,0.8,0.8,0,1.3c-1.8,0.2-3.7,0.3-5.4,1.3c-1.3,0.8-1.8,0.5-1.8-1
		c0-2.3-0.6-4.5-0.8-6.8c-0.2-2.2-0.3-4.4-0.2-6.6c0.1-3.4-0.2-6.7-0.3-10c-0.2-4.3-0.8-8.6-1-12.9c-0.2-4.1-0.9-8.2-0.7-12.4
		c0.1-3.2-0.5-6.4-0.8-9.5c-0.2-2.1,0-4.3-0.1-6.5c0-1-0.1-1.9-0.2-2.9c0-0.3-0.1-0.8-0.7-0.6c-0.4,0.1-1-0.2-1.1,0.6
		c0,0.4-0.1,0.9-0.2,1.3c-0.2,0.6-0.3,1.2-1,1.6c-1.1,0.7-1.4,2-1.8,3.1c-1.3,3.8-2.4,7.6-3.5,11.4c-0.5,1.8-1.3,3.6-2.6,5
		c-0.8,0.2-1-0.3-1.2-0.9c-0.3-1.1-0.8-2.2-1.5-3.2c-1.6-2-4.2-2.6-6.3-1.5c-0.6,0.3-1,0.7-1.2,1.3c-0.1,0.7-0.6,1.1-1.1,1.5
		c-0.8-1.9-0.4-3.7,0.2-5.6c1.9-6.2,4.1-12.4,5.5-18.8c1.2-5,2.2-10,2.9-15.1c0.1-0.9,0.2-1.9,0.2-2.8c-0.2-3.3,0.9-6.2,1.6-9.3
		c1.5-6.2,3.4-12.3,4.8-18.5c0.5-2.1,0.8-4.3,0.8-6.5c0-1.3,0.3-2.6,0.4-4c0-2.4,0.4-4.8,0.2-7.3c-0.2-1.6,0.1-3.2,0.5-4.8
		c0.3-1.2,1.4-1.7,2.3-2.1c1.2-0.5,2-1.1,2.2-2.5c0.1-0.6,0.5-1.1,1.1-1.4c0.7-0.4,1.3-0.8,1.9-1.3c1.2-0.8,1.9-1.8,1.9-3.4
		c0-1.5,1-2.6,2.1-3.5c1.8-1.5,3.6-3,4.6-5.2c0.1-0.3,0.4-0.6,0.8-0.7c0.6,1.3,0.6,2.7,0.5,4.1c-0.3,0.7-0.4,1.4-0.4,2.2
		c0.1,2,0,4,0,6.1c0,0.6-0.1,1.2-0.4,1.8c-1.1,1.8-1.8,3.7-1.9,5.8c-0.1,1.8-0.8,3.4-0.9,5.2c0,0.1-0.1,0.3-0.1,0.4
		c-0.3,6.3-1.8,12.3-3.2,18.4c-0.5,1.9-0.6,3.9-0.7,5.9c-0.2,2.9,0.2,5.8,0.3,8.6c0.1,2.9-0.2,5.7-0.7,8.5c-0.3,1.8-0.5,3.5-0.4,5.3
		c0.2,4.5-0.3,9-0.4,13.5c-0.1,2.2-0.5,4.4-0.4,6.7c0.1,2.6,0.2,5.2,0.5,7.8c0.1,1,0.1,1.9,0.1,2.9
		C43.7,279.7,43.8,280.5,44.2,281.1z"/>
	<path id="XMLID_1208_" class="st50" d="M79.6,414.2c0.2,0.1,0.5-0.6,0.5,0c-0.1,0.8,0.4,0.8,0.8,0.9c5.3,0.7,10.1-0.4,14.5-3.4
		c1.2-0.8,2.5-1.1,3.9-1.4c0.7-0.2,0.7-0.2,0.6-1c0.5,0.1,0.7,0.5,0.9,0.8c0.7,1.9,1.3,3.8,2.6,5.4c1,1.2,0.7,2.7,0.7,4
		c0.1,2.1-0.7,4.1-0.5,6.2c0.1,0.8-0.3,1.3-1.4,1.1c-0.9-0.1-1.9,0.1-2.8,0.3c-2.5,0.6-5,0.5-7.5,0.1c-0.4-0.1-0.9-0.2-1-0.5
		c-0.5-0.9-1.1-0.6-1.7-0.3c-0.6,0.2-1.1,0.5-1.6,0.8c-2.8,1.9-5.8,2.8-9.1,2.9c-0.7,0-1.3,0.2-2,0.4c-2.2,0.6-4.3-0.2-6.5-0.6
		c-1.1-0.2-2.2-0.5-3.3-0.7c-2.1-0.4-4.1-1.2-5.9-2.4c0.8,3.4,0.3,6.7,0,10.1c-0.1,0.6-0.4,1.1-1.2,1c-1.6-0.2-3.2,0.6-4.8-0.2
		c-0.2-0.1-0.6,0.1-0.9,0.3c-1.6,0.8-3.3,1.1-5,1.6c-0.7,0.2-1.4,0.2-2.1,0.1c-1-0.2-2.1-0.2-3.2,0.1c-1.3,0.5-2.6,0.4-4,0
		c-2.3-0.7-4.8-0.5-7-1.3c-1.9-0.7-3.8-1.3-5.7-2c-1.3-0.5-2.4-1.5-2.4-2.9c0-1.5,1-2.7,2.3-3.4c2.1-1,4.4-1.3,6.8-1.3
		c2.1,0,2.1,0,2.9-2c0.4-1.1,1.1-1.9,2.2-2.6c1.5-1.1,3-2.3,3.5-4.3c0.2-0.9,1-1.4,1.7-1.9c0.2,0.1,0.4,0.2,0.3,0.4
		c-0.3,0.5-0.1,0.7,0.4,0.7c4.7,0.1,9,1.7,13.3,3.6c0.6,0.3,1.3,0.3,2,0.5c0.5,0.1,0.7-0.3,1-0.6c0.5,0.4,0.4,1.1,1.1,1.3
		c0.6,0.2,1.1,0.6,1.6,0c0.5-0.6,0.1-1.1-0.5-1.5c0.5-0.2,0.7,0.1,1,0.1c0.2-0.2,0.4-0.2,0.6-0.1c3.3,0.7,6.3-0.5,9.3-1.2
		c1.5-0.4,1.9-1.1,1.9-2.7c0-0.5,0.1-1,0.4-1.3c0.9-0.8,1.7-1.7,2.5-2.5C78.8,414.5,79.1,414.2,79.6,414.2z"/>
	<path id="XMLID_1207_" class="st48" d="M100.6,274.2c0.7,0.8,0.6,1.8,0.6,2.8c0,2.4,0.2,4.7-0.1,7.1c-0.2,1.9,0.4,3.8,0.8,5.7
		c1.6,7.4,4,14.5,5.6,21.9c1.3,5.7,2.7,11.4,3.6,17.3c0.1,0.7,0.1,1.5,0.3,2.2c0.2,0.9-0.3,1.2-1.1,1.3c-3.3,0.7-6.6,1.5-9.9,2.1
		c-1.4,0.3-2.8,0.3-4.3,0.5c-3.9,0.5-7.8,0.1-11.7-0.7c-1.3-0.3-2.6-0.5-3.9-0.7c-0.5-0.5-0.3-1.1-0.2-1.6
		c1.4-8.2,3.1-16.3,5.8-24.1c2.2-6.2,4.6-12.3,7.2-18.4c2-4.9,4.3-9.7,6.5-14.5C100.1,274.7,100.2,274.3,100.6,274.2z"/>
	<path id="XMLID_1206_" class="st51" d="M52.1,179.8c-0.1-1.4-0.2-2.7-0.3-4.1c-1.1-2.1-2.1-4.2-2.4-6.6c0-0.3-0.2-0.4-0.5-0.5
		c-1.6-0.9-2.4-2.4-2.9-4.1c-0.3-1-0.5-2-0.8-3c-0.6-2.5-0.1-3.2,2.4-3.3c0.4,0.2,0.9,0.4,0.2,0.9c-0.1,0.7,0.5,0.9,1,1
		c1.5,0.4,2.2,1.3,2.5,2.8c0.1,0.7,0.5,1.4,1,2c0.8,0.9,1.8,1.4,3.1,1.1c0.7-0.1,1.3-0.3,2-0.5c1.3-0.5,2.1-1.3,2.5-2.6
		c0.1-0.5,0.3-1,0.4-1.5c0.1-0.6,0.5-0.9,1-1c0.6-0.1,1,0.2,1.2,0.7c0.4,0.7,0.7,1.4,1,2.2c0.6,1.3,1.7,2.1,3.1,2.2
		c1.5,0,2.7-0.6,3.5-2c0.3-0.6,0.6-1.2,0.8-1.8c0.3-1,0.8-1.8,1.8-2.4c1-0.6,1.5-0.5,1.5,0.7c-0.1,2-0.1,4.1-1.2,5.9
		c-0.2,0.3-0.3,0.6-0.5,0.8c-1.7,1.1-1.8,2.7-1.7,4.5c-0.4,0.2-0.1,0.4,0,0.7c0.3,0.4,0.2,0.8,0.1,1.2c-0.5,2.2-1.8,4-3.5,5.4
		c-2.6,2.1-5.4,4-7.8,6.3c-0.6,0.5-1,1.2-1.7,1.7c-0.2,0.1-0.4,0.1-0.6,0c-1.6-1.3-3-2.8-4.4-4.3C52.2,181.5,51.9,180.7,52.1,179.8z
		"/>
	<path id="XMLID_1205_" class="st52" d="M17.8,288.2c-0.1-0.8,0.9-0.9,0.9-1.7c0.1-0.9,0.9-1.2,1.6-1.6c0.7-0.3,1.5-0.6,2.3-0.4
		c0.8,0.1,1.6,0.3,2.2,0.7c1.2,0.7,2.1,1.8,2.7,3.1c0.4,0.9,0.4,2.1,1.5,2.7c-0.1,0.1-0.1,0.3-0.2,0.4c-1,1-0.8,2.2-0.5,3.3
		c0.6,2.1,0.8,4.2,0.5,6.4c-0.1,0.9-0.9,1.1-1.4,1.3c-0.4,0.1-0.6-0.6-0.7-1c-0.4-1.4-0.7-2.9-1.3-4.3c-0.7-1.6-2-2.2-3.4-2.5
		s-2.2,1-2.9,2c-0.3,0.4-0.4,0.8-0.4,1.3c0,1-0.8,1-1.5,1.2c-0.1,0-0.3,0-0.3-0.2c-0.2-0.8-0.4,0.1-0.6,0c-1-2.2-1.1-4.3,0.3-6.3
		C17.4,291.3,17.5,289.7,17.8,288.2z"/>
	<path id="XMLID_1204_" class="st53" d="M72.8,159.3c-1.3,1.4-1.6,3.3-2.7,4.8c-1.6,2.2-5.2,2.4-6.7-0.6c-0.4-0.7-0.7-1.5-1-2.2
		c-0.2-0.4-0.4-0.7-1-0.6c-0.5,0.1-0.7,0.3-0.8,0.8c-0.8,3.7-2.1,4.4-5.9,4.8c-1.4,0.2-2.4-0.8-3.1-2c-0.2-0.3-0.4-0.6-0.4-1
		c-0.3-1.6-0.9-2.9-2.8-3.1c-0.3,0-0.7-0.5-0.9-0.9c-0.2-0.3,0-0.4,0.3-0.4c0.1,0.2,0.2,0.3,0.4,0.4c0.2,0,0.3,0.5,0.5,0
		s0.5-0.2,0.8-0.2c0.8,0,1.5-0.1,2.2-0.5c2.4-1.5,4.9-1.2,7.3-0.2c1.2,0.5,2.3,0.5,3.5,0.1c2.3-0.8,4.6-1,6.9-0.1
		c0.5,0.2,1,0.1,1.5,0.3c0.4-0.2,0.9-0.3,1.4-0.2C72.2,159.1,72.3,159.3,72.8,159.3z"/>
	<path id="XMLID_1203_" class="st54" d="M100.6,274.2c-1.5,3.3-3,6.6-4.5,9.8c-1.8,3.8-3.3,7.7-4.9,11.5c-1.8,4.5-3.6,9-5.1,13.6
		c-2.1,6.5-3.7,13.1-4.8,19.8c-0.3,1.6-0.7,3.1-0.6,4.7h-0.1c0,3.4-0.8,6.8-1.1,10.2c0,0.3-0.2,0.6,0.1,0.8c0.3,0.3,0.6-0.1,0.9-0.2
		c0.5-0.3,0.9-0.8,1.6-0.7c0.4-0.1,0.6-0.5,1.1-0.5c-0.2,0.5-0.8,0.6-1.1,1c-0.7,0.4-1.3,0.8-2,1.2c-1,0.6-1.5,0.4-1.4-0.8
		c0.2-2.2,0.5-4.4,0.7-6.6c0.2-1.7,0.6-3.4,0.5-5.1c0.3-1.5,0.6-3.1,0.9-4.6c0.8-4.6,1.8-9.1,3-13.5c2.6-9.3,6.3-18.2,10.1-27.1
		c1.8-4.3,3.9-8.6,5.8-12.9c0.2-0.4,0.3-0.8,0.7-1.1C100.5,273.9,100.5,274,100.6,274.2z"/>
	<path id="XMLID_1202_" class="st55" d="M82.1,343.8c-0.6,0.4-1.3,0.8-1.9,1.2c-0.3,0.2-0.7,0.5-1,0.3c-0.2-0.1-0.1-0.6-0.1-0.9
		c0.1-1.2,0.3-2.4,0.4-3.6c0.3-2.2,0.6-4.4,0.8-6.6c0-0.2,0-0.4,0.2-0.5c0.4,2,0,4.1,0,6.1c0,1.1,0.1,2,0.9,2.9
		C81.8,342.9,82,343.3,82.1,343.8z"/>
	<path id="XMLID_1201_" class="st51" d="M70.9,158.8c-0.5,0.2-0.9,0.3-1.4,0.1c-2.3-1.1-4.6-0.8-6.9,0c-1.2,0.4-2.2,0.4-3.4,0
		c-2.5-1-5.1-1.4-7.6,0.3c-0.6,0.4-1.3,0.6-2,0.1c0.4-0.4,0.4-0.9,0.5-1.5c0.1-1.7,0-3.3-0.3-5c-0.5-2.7,2.7-5.4,5.3-4.6
		c1.9,0.6,3.7,1.1,5.8,0.7c2.3-0.4,4.5,0.4,6.7,1.1c1.8,0.6,2.6,2.1,2.8,3.8c0.1,1.1,0.4,2.2,0.1,3.3
		C70.4,157.7,70.8,158.2,70.9,158.8z"/>
	<path id="XMLID_1200_" class="st56" d="M48.8,159.4c0.2,0.2,0.4,0.4,0.8,0.7c-0.7-0.1-1.1-0.2-1.3-0.7
		C48.5,159.5,48.6,159.4,48.8,159.4z"/>
	<path id="XMLID_1199_" class="st57" d="M64.2,197.4c0.2,0.1,0.2,0.3,0.2,0.5c-1.4,3.7-1.9,7.5-2.4,11.4c-0.3,2.5-0.4,4.9-0.4,7.4
		c0,2.1-0.3,4.2-0.4,6.2c-0.2,4,0.4,7.9,1.2,11.9c0.3,1.5,0.5,3,1,4.5c0.5,1.4,1,2.8,2.1,3.9c1.1,1.2,1.5,2.7,1.9,4.3
		c0.4,1.7,1.3,3.1,2.5,4.4c2.5,2.6,5.1,5,7.2,8c1,1.5,1.7,3,1.6,4.8c0,0.7,0,1.3-0.9,1.6c-0.3,0.1-0.5,0.6-0.8,1
		c-0.3-0.1-0.7-0.3-0.5,0.3c0.1,0.4,0,0.6-0.3,0.8c-2.1,0.9-3.7,2.4-5.5,3.8c-2.3,1.7-4.6,3.4-6.8,5.1c-1.4,1.1-2.6,2.4-4.2,3.2
		c-1.3,0.8-1.2,0.8-2-0.5c-1-1.8-2.2-3.5-3.3-5.3c-0.5-0.7-1-1.4-1.3-2.2c-0.9-0.4-1.3-1.3-1.8-2.1c-0.6-1-1.2-2.1-1.8-3.1
		c-0.3,1.3-0.5,2.6-0.8,3.9c-0.1,0.6-0.4,1.1-0.9,1.5c0.2,0.3,0.1,0.6,0,0.8c-1,2.6-2.1,5.1-2.3,7.9c0,0.2-0.1,0.5-0.2,0.8
		c-0.6-0.6,0-1.4-0.5-1.9c-0.6-1.2-0.3-2.5-0.3-3.8c0.2-3.2,0.2-6.3,0-9.5c-0.2-2.5-0.1-5,0-7.5c0.1-2.7,0.6-5.3,0.5-8
		c0-2.6,0.5-5.2,0.7-7.9c0.2-2.3,0.3-4.7,0.3-7c0-3,0.5-6,1.1-8.9c0.6-3,0.7-6.1,0.6-9.1c-0.1-2.4-0.1-4.9,0.7-7.3
		c0.6-1.9,1.1-3.9,1-5.9c0.1-0.4,0.1-0.9,0.7-0.8c0.5,0.1,0.3,0.6,0.3,0.9c0,0.4-0.1,0.7,0.1,1.1c1.1,2.9,2.3,5.9,3.6,8.9
		c1.5-2.4,3-4.7,4.1-7.1c1.3-2.4,2.9-4.7,4.1-7.2c0.5-0.9,1-1.7,1.3-2.7C63.5,197.9,63.7,197.5,64.2,197.4z"/>
	<path id="XMLID_1197_" class="st58" d="M49.4,204.9c0.2,2-0.1,4-0.8,5.9c-0.5,1.3-0.7,2.8-0.7,4.2c-0.2,3.4,0.2,6.8-0.2,10.2
		c-0.2,1.7-0.6,3.4-1,5.1c-0.3,1.5-0.5,3-0.6,4.6c-0.1,4.3-0.2,8.7-0.8,13c-0.4,2.6-0.2,5.2-0.5,7.8c-0.3,3.2-0.5,6.5-0.4,9.7
		c0.1,2,0.4,4,0.3,6c-0.1,1.6,0,3.2-0.2,4.7c-0.2,1.3-0.1,2.7-0.1,4c-0.3,0.2-0.2,0.6-0.2,0.9c-0.8-0.1-0.8-0.8-0.8-1.3
		c0-4.3-0.9-8.5-0.7-12.8c0.2-4.5,0.6-9,0.8-13.5c0.1-2.3,0.1-4.5,0.1-6.8c0-2.8,0.7-5.5,1-8.2c0.2-2,0.2-4,0-5.9
		c-0.6-5.7-0.1-11.2,1.4-16.7c0.8-3,1.1-6.1,1.7-9.1c0.8-3.5,0.7-7.1,1.5-10.6c0.5-2,0.7-4,1.7-5.9c0.1-0.2,0.2-0.4,0.4-0.4
		c0.4,0.4,0.2,0.8,0,1.2c-0.7,1.5-1.3,3-1.3,4.7c0,1-0.5,2-0.6,3c-0.1,0.6-0.2,1.3-0.2,1.9C49,202.2,49.2,203.5,49.4,204.9z"/>
	<path id="XMLID_1196_" class="st51" d="M79,273.3c1.2,1.1,2.4,2.1,3.7,3c0.6,0.4,1,1.1,1.5,1.7c0.2,0.2,0.2,0.5,0.1,0.7
		c-0.6,1.5-0.9,3.2-1.9,4.5C81.1,280,79.5,276.8,79,273.3z"/>
	<path id="XMLID_1195_" class="st59" d="M47.5,272.7c1.1-1.8,1-4,1.7-6.1c1.3,2,2.2,4.1,3.7,5.8c-0.7,0.2-1.4,0.2-2.2,0
		C49.6,272.2,48.6,272.7,47.5,272.7z"/>
	<path id="XMLID_1194_" class="st60" d="M64.2,197.4c-0.1,0.1-0.3,0.3-0.3,0.4c-1.3,3.5-3.4,6.5-5.3,9.7c-0.1,0.2-0.2,0.4-0.3,0.7
		c-0.3,0-0.4,0.5-0.7,0.4c-0.3-0.1-0.3-0.5-0.3-0.8c0-0.4-0.1-0.9,0-1.3c0.4-1.8-0.1-3.6-0.2-5.4c-0.1-2.3,0.2-4.6,0.4-6.9
		c0.1-1.1,0.4-2.3,0.6-3.4c0.3-1.6,1-2.7,2.7-3.1c-0.5-0.5-1.1-0.5-1.6-0.7c-0.4-0.2-1-0.1-1.3-0.7c1.4-1.9,3.3-3.3,5.2-4.8
		c2.1-1.6,4.3-3.1,6-5.1c1.1-1.3,1.6-2.9,1.8-4.6c0.7,0.8,1.2,1.5,0.8,2.6c-0.4,1-0.7,2.1,0,3.2c0.4,0.6,0.3,1.3-0.1,2
		c-2.2,3.9-3.7,8-5,12.2c-0.5,1.5-1.3,2.9-1.9,4.3C64.4,196.6,64.1,197,64.2,197.4z"/>
	<path id="XMLID_1192_" class="st60" d="M51.2,190.9c0.1-0.3,0.2-0.7,0.2-1.1c0.4-2.6,0.2-5.2,0.2-7.8c0-0.8-0.1-1.6,0.5-2.2
		c0.2,1.7,1.4,2.7,2.5,3.8c0.9,0.9,1.9,1.7,2.6,2.7c-0.4,0.5-1.1,0.3-1.6,0.5c-1.8,0.5-2.3,1.3-1.7,3c0,0,0,0,0,0.1
		c0.2,0.8,1,1.6,0.6,2.5c-0.5,1.3-1.4,2.3-2.3,3.3c-0.2,0.2-0.5,0.4-0.8,0.3c-0.3-0.1-0.2-0.4-0.2-0.7c0-0.2-0.1-0.4-0.1-0.6
		C51,193.4,51.1,192.1,51.2,190.9z"/>
	<path id="XMLID_1191_" class="st61" d="M51.4,194.8c0.4,0.3,0.1,0.6,0,1c0.9-0.3,1.1-1.1,1.7-1.7c1.2-1.2,1.5-2.4,0.7-3.9
		c-1.5-2.6,0.7-3.7,2.7-3.9c0.2,0,0.5,0,0.8,0c0.2,0,0.5,0,0.7,0c0.6,0.2,1.3,0.4,1.9,0.6c0.6,0.2,1.2,0.4,1.7,0.8
		c-0.1,0.1-0.2,0.2-0.2,0.2c-1.9,0.1-2.7,1.2-3,3c-0.4,2.4-0.7,4.7-0.9,7.1c-0.2,2.1,0.1,4.1,0.2,6.2c0.1,1.4-0.3,2.7-0.1,4.1
		c0.3,0.2,0.3-0.7,0.7-0.2c-1.1,2.8-2.9,5.1-4.4,8c-1.1-2.8-2.2-5.5-3.3-8.2c-0.4-1-1-1.9-0.6-3.1c0.1-0.2,0-0.4-0.3-0.4
		c-0.2,0-0.3,0.2-0.3,0.3c-0.6-1.3-0.7-2.6-0.4-4c0.3-1.7,0.7-3.4,1.3-5C50.5,195.5,50.6,194.8,51.4,194.8z"/>
	<path id="XMLID_1190_" class="st42" d="M51.4,194.8c-1,0.9-1.1,2.2-1.5,3.3c-0.4,0.9-0.6,1.9-0.9,2.8c-0.1-0.7,0-1.4,0.2-2
		c0.8-2.2,0.4-4.7,1.4-6.9c0.2-0.4,0.4-0.8,0.5-1.1C51.6,192.2,51.3,193.5,51.4,194.8z"/>
</g>
</svg>
